<?xml version="1.0" encoding="UTF-8"?>
<svg version="1.1" xmlns="http://www.w3.org/2000/svg" width="1302" height="852">
<path d="M0 0 C4.95 0 9.9 0 15 0 C15 46.53 15 93.06 15 141 C10.05 141 5.1 141 0 141 C0 94.47 0 47.94 0 0 Z " fill="#6ED9D8" transform="translate(328,375)"/>
<path d="M0 0 C1.65322266 0.01740234 1.65322266 0.01740234 3.33984375 0.03515625 C4.99693359 0.04869141 4.99693359 0.04869141 6.6875 0.0625 C7.54214844 0.07410156 8.39679687 0.08570313 9.27734375 0.09765625 C13.596543 9.75233692 16.33307256 19.96381705 19.27734375 30.09765625 C22.45038611 22.69215628 24.90795148 15.13457723 27.25830078 7.4362793 C27.50563965 6.63230713 27.75297852 5.82833496 28.0078125 5 C28.22848389 4.27288818 28.44915527 3.54577637 28.67651367 2.79663086 C29.27734375 1.09765625 29.27734375 1.09765625 30.27734375 0.09765625 C32.27533947 -0.00108191 34.27691533 -0.03206174 36.27734375 -0.02734375 C37.37046875 -0.02992188 38.46359375 -0.0325 39.58984375 -0.03515625 C42.27734375 0.09765625 42.27734375 0.09765625 43.27734375 1.09765625 C43.37595973 2.71893048 43.40533142 4.34447993 43.40673828 5.96875 C43.40989044 7.00652588 43.4130426 8.04430176 43.41629028 9.11352539 C43.41426605 10.24266357 43.41224182 11.37180176 43.41015625 12.53515625 C43.41111298 13.68556396 43.4120697 14.83597168 43.41305542 16.02124023 C43.41373744 18.45914769 43.41188165 20.89705695 43.40771484 23.33496094 C43.40236692 27.08142143 43.40765914 30.82776202 43.4140625 34.57421875 C43.41340172 36.93619818 43.41212057 39.29817754 43.41015625 41.66015625 C43.41218048 42.78929443 43.41420471 43.91843262 43.41629028 45.08178711 C43.41156204 46.63845093 43.41156204 46.63845093 43.40673828 48.2265625 C43.40594269 49.1451001 43.40514709 50.0636377 43.40432739 51.01000977 C43.27734375 53.09765625 43.27734375 53.09765625 42.27734375 54.09765625 C38.97734375 54.09765625 35.67734375 54.09765625 32.27734375 54.09765625 C31.78234375 41.72265625 31.78234375 41.72265625 31.27734375 29.09765625 C29.0151074 36.95002461 29.0151074 36.95002461 26.76000977 44.80444336 C26.47826904 45.77647705 26.19652832 46.74851074 25.90625 47.75 C25.6182251 48.75023193 25.3302002 49.75046387 25.03344727 50.78100586 C24.27734375 53.09765625 24.27734375 53.09765625 23.27734375 54.09765625 C20.63734375 54.09765625 17.99734375 54.09765625 15.27734375 54.09765625 C12.96734375 46.17765625 10.65734375 38.25765625 8.27734375 30.09765625 C7.94734375 38.01765625 7.61734375 45.93765625 7.27734375 54.09765625 C3.64734375 54.09765625 0.01734375 54.09765625 -3.72265625 54.09765625 C-3.74729657 46.56795493 -3.76548766 39.03827686 -3.77758789 31.50854492 C-3.78262995 28.94473868 -3.78946339 26.38093534 -3.7980957 23.81713867 C-3.81016689 20.14110604 -3.81588567 16.46511127 -3.8203125 12.7890625 C-3.82547379 11.63491348 -3.83063507 10.48076447 -3.83595276 9.29164124 C-3.83602829 8.23061691 -3.83610382 7.16959259 -3.83618164 6.07641602 C-3.83840225 5.13709732 -3.84062286 4.19777863 -3.84291077 3.22999573 C-3.66048853 -0.00469479 -3.27411255 0.11743589 0 0 Z M1.27734375 5.09765625 C1.27734375 19.61765625 1.27734375 34.13765625 1.27734375 49.09765625 C1.60734375 49.09765625 1.93734375 49.09765625 2.27734375 49.09765625 C2.27734375 34.90765625 2.27734375 20.71765625 2.27734375 6.09765625 C3.26734375 5.76765625 4.25734375 5.43765625 5.27734375 5.09765625 C3.95734375 5.09765625 2.63734375 5.09765625 1.27734375 5.09765625 Z M33.27734375 5.09765625 C37.27734375 6.09765625 37.27734375 6.09765625 37.27734375 6.09765625 Z M21.27734375 39.09765625 C22.27734375 41.09765625 22.27734375 41.09765625 22.27734375 41.09765625 Z M20.27734375 42.09765625 C21.27734375 44.09765625 21.27734375 44.09765625 21.27734375 44.09765625 Z M18.27734375 45.09765625 C18.93734375 45.75765625 19.59734375 46.41765625 20.27734375 47.09765625 C20.27734375 46.43765625 20.27734375 45.77765625 20.27734375 45.09765625 C19.61734375 45.09765625 18.95734375 45.09765625 18.27734375 45.09765625 Z " fill="#28CAD2" transform="translate(605.72265625,393.90234375)"/>
<path d="M0 0 C4.29 0 8.58 0 13 0 C19.29327902 18.51323829 19.29327902 18.51323829 21.45703125 27.12890625 C21.83608071 28.99675658 21.83608071 28.99675658 23 30 C23.29769287 29.12674072 23.59538574 28.25348145 23.90209961 27.35375977 C25.00490624 24.12329653 26.11031797 20.89374982 27.2175293 17.66479492 C27.69677318 16.26541578 28.1749668 14.86567651 28.65209961 13.46557617 C29.33693985 11.45656923 30.02551057 9.4488753 30.71484375 7.44140625 C31.33540649 5.62684937 31.33540649 5.62684937 31.96850586 3.77563477 C33 1 33 1 34 0 C37.96 0 41.92 0 46 0 C46 17.82 46 35.64 46 54 C42.37 54 38.74 54 35 54 C34.67 46.41 34.34 38.82 34 31 C31.69 38.59 29.38 46.18 27 54 C24.03 54 21.06 54 18 54 C16.02 46.74 14.04 39.48 12 32 C11.67 39.26 11.34 46.52 11 54 C7.37 54 3.74 54 0 54 C0 36.18 0 18.36 0 0 Z M5 5 C9 6 9 6 9 6 Z M37 5 C37.99 5.33 38.98 5.66 40 6 C40 20.19 40 34.38 40 49 C40.33 49 40.66 49 41 49 C41 34.48 41 19.96 41 5 C39.68 5 38.36 5 37 5 Z M22 45 C23 47 23 47 23 47 Z " fill="#25C9D1" transform="translate(499,394)"/>
<path d="M0 0 C1.65322266 0.01740234 1.65322266 0.01740234 3.33984375 0.03515625 C4.99693359 0.04869141 4.99693359 0.04869141 6.6875 0.0625 C7.54214844 0.07410156 8.39679687 0.08570313 9.27734375 0.09765625 C12.20793945 6.38265687 14.07144651 12.87466702 15.96484375 19.53515625 C16.28517578 20.64826172 16.60550781 21.76136719 16.93554688 22.90820312 C17.72019048 25.6368891 18.50066573 28.36669443 19.27734375 31.09765625 C19.57503662 30.194104 19.87272949 29.29055176 20.17944336 28.35961914 C21.28219281 25.01734728 22.38761111 21.67598338 23.49487305 18.33520508 C23.97414274 16.8873198 24.45233632 15.43907787 24.92944336 13.99047852 C25.61421659 11.911982 26.30281147 9.83478622 26.9921875 7.7578125 C27.61275024 5.88041382 27.61275024 5.88041382 28.24584961 3.96508789 C29.27734375 1.09765625 29.27734375 1.09765625 30.27734375 0.09765625 C34.23734375 0.09765625 38.19734375 0.09765625 42.27734375 0.09765625 C42.27734375 17.91765625 42.27734375 35.73765625 42.27734375 54.09765625 C38.97734375 54.09765625 35.67734375 54.09765625 32.27734375 54.09765625 C31.78234375 41.72265625 31.78234375 41.72265625 31.27734375 29.09765625 C29.0151074 36.95002461 29.0151074 36.95002461 26.76000977 44.80444336 C26.47826904 45.77647705 26.19652832 46.74851074 25.90625 47.75 C25.6182251 48.75023193 25.3302002 49.75046387 25.03344727 50.78100586 C24.27734375 53.09765625 24.27734375 53.09765625 23.27734375 54.09765625 C20.60675524 54.23880786 17.95302137 54.14012732 15.27734375 54.09765625 C14.48272835 51.5985605 13.69159972 49.09844482 12.90234375 46.59765625 C12.56976562 45.55351562 12.56976562 45.55351562 12.23046875 44.48828125 C12.01132812 43.7921875 11.7921875 43.09609375 11.56640625 42.37890625 C11.36740723 41.75048828 11.1684082 41.12207031 10.96337891 40.47460938 C9.97258752 37.04174642 9.14391969 33.56396002 8.27734375 30.09765625 C7.94734375 38.01765625 7.61734375 45.93765625 7.27734375 54.09765625 C3.64734375 54.09765625 0.01734375 54.09765625 -3.72265625 54.09765625 C-3.74729657 46.56795493 -3.76548766 39.03827686 -3.77758789 31.50854492 C-3.78262995 28.94473868 -3.78946339 26.38093534 -3.7980957 23.81713867 C-3.81016689 20.14110604 -3.81588567 16.46511127 -3.8203125 12.7890625 C-3.82547379 11.63491348 -3.83063507 10.48076447 -3.83595276 9.29164124 C-3.83602829 8.23061691 -3.83610382 7.16959259 -3.83618164 6.07641602 C-3.83840225 5.13709732 -3.84062286 4.19777863 -3.84291077 3.22999573 C-3.66048853 -0.00469479 -3.27411255 0.11743589 0 0 Z M1.27734375 5.09765625 C1.27734375 19.61765625 1.27734375 34.13765625 1.27734375 49.09765625 C1.60734375 49.09765625 1.93734375 49.09765625 2.27734375 49.09765625 C2.27734375 34.90765625 2.27734375 20.71765625 2.27734375 6.09765625 C3.26734375 5.76765625 4.25734375 5.43765625 5.27734375 5.09765625 C3.95734375 5.09765625 2.63734375 5.09765625 1.27734375 5.09765625 Z M33.27734375 5.09765625 C37.27734375 6.09765625 37.27734375 6.09765625 37.27734375 6.09765625 Z M29.27734375 15.09765625 C30.27734375 17.09765625 30.27734375 17.09765625 30.27734375 17.09765625 Z M28.27734375 18.09765625 C29.27734375 20.09765625 29.27734375 20.09765625 29.27734375 20.09765625 Z M27.27734375 21.09765625 C28.27734375 23.09765625 28.27734375 23.09765625 28.27734375 23.09765625 Z M26.27734375 24.09765625 C27.27734375 26.09765625 27.27734375 26.09765625 27.27734375 26.09765625 Z M25.27734375 27.09765625 C26.27734375 29.09765625 26.27734375 29.09765625 26.27734375 29.09765625 Z M24.27734375 30.09765625 C25.27734375 32.09765625 25.27734375 32.09765625 25.27734375 32.09765625 Z M23.27734375 33.09765625 C24.27734375 35.09765625 24.27734375 35.09765625 24.27734375 35.09765625 Z M22.27734375 36.09765625 C23.27734375 38.09765625 23.27734375 38.09765625 23.27734375 38.09765625 Z M21.27734375 39.09765625 C22.27734375 41.09765625 22.27734375 41.09765625 22.27734375 41.09765625 Z " fill="#22C8D0" transform="translate(900.72265625,393.90234375)"/>
<path d="M0 0 C4.95 0 9.9 0 15 0 C15 38.61 15 77.22 15 117 C10.05 117 5.1 117 0 117 C0 78.39 0 39.78 0 0 Z " fill="#6DD9D8" transform="translate(310,399)"/>
<path d="M0 0 C1.37478516 0.01740234 1.37478516 0.01740234 2.77734375 0.03515625 C3.69644531 0.04417969 4.61554687 0.05320312 5.5625 0.0625 C6.27277344 0.07410156 6.98304688 0.08570313 7.71484375 0.09765625 C8.82159994 2.28387875 9.92528753 4.47156573 11.02734375 6.66015625 C11.33607422 7.26923828 11.64480469 7.87832031 11.96289062 8.50585938 C14.04275045 12.64368576 15.92770205 16.82501287 17.71484375 21.09765625 C17.7398999 20.49703369 17.76495605 19.89641113 17.79077148 19.27758789 C17.90639655 16.57154188 18.02927311 13.86587342 18.15234375 11.16015625 C18.19166016 10.21462891 18.23097656 9.26910156 18.27148438 8.29492188 C18.31337891 7.39580078 18.35527344 6.49667969 18.3984375 5.5703125 C18.43509521 4.73765869 18.47175293 3.90500488 18.50952148 3.04711914 C18.71484375 1.09765625 18.71484375 1.09765625 19.71484375 0.09765625 C21.37913426 -0.00058312 23.04766306 -0.03208006 24.71484375 -0.02734375 C26.07609375 -0.03121094 26.07609375 -0.03121094 27.46484375 -0.03515625 C29.71484375 0.09765625 29.71484375 0.09765625 30.71484375 1.09765625 C30.8083129 2.75504068 30.83229352 4.41640269 30.82836914 6.07641602 C30.82829361 7.13744034 30.82821808 8.19846466 30.82814026 9.29164124 C30.82297897 10.44579025 30.81781769 11.59993927 30.8125 12.7890625 C30.81108505 13.96403793 30.8096701 15.13901337 30.80821228 16.34959412 C30.80259367 20.11980689 30.79003801 23.88996129 30.77734375 27.66015625 C30.77233115 30.20898352 30.76776783 32.75781172 30.76367188 35.30664062 C30.75261819 41.57033515 30.73534109 47.83398579 30.71484375 54.09765625 C26.75484375 54.09765625 22.79484375 54.09765625 18.71484375 54.09765625 C14.25984375 43.70265625 14.25984375 43.70265625 9.71484375 33.09765625 C9.42560689 39.6344217 9.42560689 39.6344217 9.14672852 46.17163086 C9.10862061 46.98124268 9.0705127 47.79085449 9.03125 48.625 C8.97626343 49.87398071 8.97626343 49.87398071 8.92016602 51.14819336 C8.71484375 53.09765625 8.71484375 53.09765625 7.71484375 54.09765625 C5.86196873 54.16992127 4.00650497 54.18146845 2.15234375 54.16015625 C1.14042969 54.15113281 0.12851562 54.14210938 -0.9140625 54.1328125 C-1.69652344 54.12121094 -2.47898437 54.10960937 -3.28515625 54.09765625 C-3.31042273 46.56795973 -3.32798766 39.03827405 -3.34008789 31.50854492 C-3.34512995 28.94473868 -3.35196339 26.38093534 -3.3605957 23.81713867 C-3.37266689 20.14110604 -3.37838567 16.46511127 -3.3828125 12.7890625 C-3.38797379 11.63491348 -3.39313507 10.48076447 -3.39845276 9.29164124 C-3.39852829 8.23061691 -3.39860382 7.16959259 -3.39868164 6.07641602 C-3.40090225 5.13709732 -3.40312286 4.19777863 -3.40541077 3.22999573 C-3.23720382 0.24736924 -2.99005127 0.12777997 0 0 Z M23.71484375 47.09765625 C24.71484375 49.09765625 24.71484375 49.09765625 24.71484375 49.09765625 Z " fill="#20C8D0" transform="translate(711.28515625,393.90234375)"/>
<path d="M0 0 C3.63 0 7.26 0 11 0 C11.91935844 1.81113613 12.8353233 3.62399495 13.75 5.4375 C14.26046875 6.44683594 14.7709375 7.45617187 15.296875 8.49609375 C17.30162896 12.62055317 19.16140354 16.79943254 21 21 C21.02505615 20.39937744 21.0501123 19.79875488 21.07592773 19.17993164 C21.1915528 16.47388563 21.31442936 13.76821717 21.4375 11.0625 C21.47681641 10.11697266 21.51613281 9.17144531 21.55664062 8.19726562 C21.59853516 7.29814453 21.64042969 6.39902344 21.68359375 5.47265625 C21.72025146 4.64000244 21.75690918 3.80734863 21.79467773 2.94946289 C22 1 22 1 23 0 C24.66429051 -0.09823937 26.33281931 -0.12973631 28 -0.125 C29.36125 -0.12886719 29.36125 -0.12886719 30.75 -0.1328125 C33 0 33 0 34 1 C34.09346915 2.65738443 34.11744977 4.31874644 34.11352539 5.97875977 C34.11344986 7.03978409 34.11337433 8.10080841 34.11329651 9.19398499 C34.10813522 10.348134 34.10297394 11.50228302 34.09765625 12.69140625 C34.0962413 13.86638168 34.09482635 15.04135712 34.09336853 16.25193787 C34.08774992 20.02215064 34.07519426 23.79230504 34.0625 27.5625 C34.0574874 30.11132727 34.05292408 32.66015547 34.04882812 35.20898438 C34.03777444 41.4726789 34.02049734 47.73632954 34 54 C30.04 54 26.08 54 22 54 C18.7 46.41 15.4 38.82 12 31 C11.67 38.59 11.34 46.18 11 54 C7.37 54 3.74 54 0 54 C0 36.18 0 18.36 0 0 Z M27 47 C28 49 28 49 28 49 Z " fill="#28CAD2" transform="translate(999,394)"/>
<path d="M0 0 C4.25704971 5.08099481 5.33739938 9.78081005 4.9375 16.3125 C0.9775 16.3125 -2.9825 16.3125 -7.0625 16.3125 C-7.371875 15.343125 -7.68125 14.37375 -8 13.375 C-8.75773342 10.47184208 -8.75773342 10.47184208 -10.0625 9.3125 C-15.38923036 8.97393172 -15.38923036 8.97393172 -20.0625 11.3125 C-20.49638497 13.99350198 -20.49638497 13.99350198 -20.390625 17.125 C-20.38546875 18.28257812 -20.3803125 19.44015625 -20.375 20.6328125 C-20.354375 21.84710938 -20.33375 23.06140625 -20.3125 24.3125 C-20.30734375 25.52679688 -20.3021875 26.74109375 -20.296875 27.9921875 C-20.53743393 33.83038888 -20.53743393 33.83038888 -19.0625 39.3125 C-15.55167846 40.34978818 -13.67895651 40.5590826 -10.25 39.1875 C-7.64620371 36.95567461 -7.33473814 35.67010377 -7.0625 32.3125 C-10.0325 32.3125 -13.0025 32.3125 -16.0625 32.3125 C-16.08938151 30.66675434 -16.10884123 29.02088587 -16.125 27.375 C-16.13660156 26.45847656 -16.14820313 25.54195313 -16.16015625 24.59765625 C-16.0625 22.3125 -16.0625 22.3125 -15.0625 21.3125 C-13.5737814 21.22580568 -12.081055 21.20546506 -10.58984375 21.21484375 C-9.69072266 21.21806641 -8.79160156 21.22128906 -7.86523438 21.22460938 C-6.91970703 21.23298828 -5.97417969 21.24136719 -5 21.25 C-4.05060547 21.25451172 -3.10121094 21.25902344 -2.12304688 21.26367188 C0.23053065 21.2754989 2.58398477 21.29197975 4.9375 21.3125 C5.01906437 24.16725306 5.07826372 27.01963565 5.125 29.875 C5.15013672 30.67486328 5.17527344 31.47472656 5.20117188 32.29882812 C5.2803874 38.76809615 4.2419649 43.47032662 0.0625 48.625 C-6.13749239 53.54852337 -13.52297708 52.97700033 -21.0625 52.3125 C-25.95820098 51.12793529 -28.39414547 49.28987867 -31.2421875 45.125 C-33.9612346 39.35406822 -33.66037609 33.15176905 -33.58398438 26.90380859 C-33.56253802 24.81620138 -33.58385181 22.73203378 -33.609375 20.64453125 C-33.62615482 13.24727906 -33.33810416 7.51513701 -29.0625 1.3125 C-21.67898028 -5.88057179 -8.41331242 -4.63590684 0 0 Z M-2.0625 10.3125 C-1.0625 12.3125 -1.0625 12.3125 -1.0625 12.3125 Z M-12.0625 26.3125 C-12.0625 26.6425 -12.0625 26.9725 -12.0625 27.3125 C-8.4325 27.3125 -4.8025 27.3125 -1.0625 27.3125 C-1.0625 26.9825 -1.0625 26.6525 -1.0625 26.3125 C-4.6925 26.3125 -8.3225 26.3125 -12.0625 26.3125 Z " fill="#28CAD1" transform="translate(835.0625,396.6875)"/>
<path d="M0 0 C5.43171698 6.2893565 4.71631379 13.68535608 4.69067383 21.58056641 C4.68751886 23.61285326 4.71099443 25.64367433 4.73632812 27.67578125 C4.73980699 34.69612964 4.64591813 40.46095132 1.375 46.75 C-5.7219584 52.5162787 -12.79284686 52.46321591 -21.625 51.75 C-25.76690318 50.54610344 -28.61936342 48.82051636 -31.5625 45.6875 C-33.77670442 41.64983313 -33.80044573 37.92706255 -33.828125 33.44921875 C-33.83382507 32.73522415 -33.83952515 32.02122955 -33.84539795 31.28559875 C-33.85483651 29.77513098 -33.86137739 28.26464273 -33.86523438 26.75415039 C-33.87492129 24.45617214 -33.90594606 22.15909586 -33.9375 19.86132812 C-33.94403256 18.39063029 -33.94928204 16.91992608 -33.953125 15.44921875 C-33.9654718 14.76776291 -33.9778186 14.08630707 -33.99053955 13.38420105 C-33.96410925 7.65490107 -32.42238037 3.71077859 -28.5625 -0.5 C-20.30275465 -5.42069936 -7.95039279 -5.99188139 0 0 Z M-21.625 10.75 C-22.241594 13.48117487 -22.241594 13.48117487 -22.15625 16.58984375 C-22.16140625 17.73517578 -22.1665625 18.88050781 -22.171875 20.06054688 C-22.15640625 21.25744141 -22.1409375 22.45433594 -22.125 23.6875 C-22.14046875 24.88052734 -22.1559375 26.07355469 -22.171875 27.30273438 C-22.16671875 28.44935547 -22.1615625 29.59597656 -22.15625 30.77734375 C-22.15173828 31.82656006 -22.14722656 32.87577637 -22.14257812 33.95678711 C-21.49703956 37.44056388 -20.44764915 38.65787814 -17.625 40.75 C-14.21869479 40.69024026 -11.75584699 40.5589163 -8.93725586 38.54272461 C-6.09406037 34.65852284 -7.15897922 28.93545966 -7.1875 24.3125 C-7.16751953 23.16716797 -7.14753906 22.02183594 -7.12695312 20.84179688 C-7.12791992 19.18954102 -7.12791992 19.18954102 -7.12890625 17.50390625 C-7.12705322 16.49658447 -7.1252002 15.4892627 -7.12329102 14.45141602 C-7.75767543 11.03561869 -8.90675315 9.85215604 -11.625 7.75 C-16.04879247 7.1048636 -18.45287869 7.59172525 -21.625 10.75 Z " fill="#34CCD3" transform="translate(479.625,397.25)"/>
<path d="M0 0 C0.9075 0.00257813 1.815 0.00515625 2.75 0.0078125 C4.11125 0.00394531 4.11125 0.00394531 5.5 0 C7.75 0.1328125 7.75 0.1328125 8.75 1.1328125 C8.83669432 2.6215311 8.85703494 4.1142575 8.84765625 5.60546875 C8.84443359 6.50458984 8.84121094 7.40371094 8.83789062 8.33007812 C8.82951172 9.27560547 8.82113281 10.22113281 8.8125 11.1953125 C8.80798828 12.14470703 8.80347656 13.09410156 8.79882812 14.07226562 C8.78700128 16.42580781 8.76906521 18.77931782 8.75 21.1328125 C12.71 21.1328125 16.67 21.1328125 20.75 21.1328125 C20.75 14.2028125 20.75 7.2728125 20.75 0.1328125 C29.24609375 0.03515625 29.24609375 0.03515625 31.75 0.1328125 C33.40408456 1.78689706 32.87742355 3.72835142 32.87939453 6.00390625 C32.88254669 7.04168213 32.88569885 8.07945801 32.88894653 9.14868164 C32.8869223 10.27781982 32.88489807 11.40695801 32.8828125 12.5703125 C32.88376923 13.72072021 32.88472595 14.87112793 32.88571167 16.05639648 C32.88639369 18.49430394 32.8845379 20.9322132 32.88037109 23.37011719 C32.87502317 27.11657768 32.88031539 30.86291827 32.88671875 34.609375 C32.88605797 36.97135443 32.88477682 39.33333379 32.8828125 41.6953125 C32.88483673 42.82445068 32.88686096 43.95358887 32.88894653 45.11694336 C32.88421829 46.67360718 32.88421829 46.67360718 32.87939453 48.26171875 C32.87859894 49.18025635 32.87780334 50.09879395 32.87698364 51.04516602 C32.75 53.1328125 32.75 53.1328125 31.75 54.1328125 C28.12 54.1328125 24.49 54.1328125 20.75 54.1328125 C20.75 46.8728125 20.75 39.6128125 20.75 32.1328125 C16.79 32.1328125 12.83 32.1328125 8.75 32.1328125 C8.75 39.3928125 8.75 46.6528125 8.75 54.1328125 C4.79 54.1328125 0.83 54.1328125 -3.25 54.1328125 C-3.27464032 46.60311118 -3.29283141 39.07343311 -3.30493164 31.54370117 C-3.3099737 28.97989493 -3.31680714 26.41609159 -3.32543945 23.85229492 C-3.33751064 20.17626229 -3.34322942 16.50026752 -3.34765625 12.82421875 C-3.35281754 11.67006973 -3.35797882 10.51592072 -3.36329651 9.32679749 C-3.36337204 8.26577316 -3.36344757 7.20474884 -3.36352539 6.11157227 C-3.365746 5.17225357 -3.36796661 4.23293488 -3.37025452 3.26515198 C-3.20331608 0.30501857 -2.96175971 0.17482609 0 0 Z " fill="#35CDD4" transform="translate(400.25,393.8671875)"/>
<path d="M0 0 C4.95 0 9.9 0 15 0 C15 31.02 15 62.04 15 94 C10.05 94 5.1 94 0 94 C0 62.98 0 31.96 0 0 Z " fill="#6DD9D8" transform="translate(292,422)"/>
<path d="M0 0 C1.51400391 0.01740234 1.51400391 0.01740234 3.05859375 0.03515625 C4.07050781 0.04417969 5.08242188 0.05320312 6.125 0.0625 C7.29869141 0.07990234 7.29869141 0.07990234 8.49609375 0.09765625 C10.76135667 5.88564602 12.58670819 11.67090196 14.1953125 17.671875 C14.43522415 18.55873489 14.6751358 19.44559479 14.9223175 20.35932922 C15.42427895 22.22020825 15.92418487 24.08164286 16.42211914 25.94360352 C17.18471879 28.78935449 17.95823217 31.63199259 18.73242188 34.47460938 C19.22071641 36.29018605 19.70836908 38.10593549 20.1953125 39.921875 C20.42651291 40.76779709 20.65771332 41.61371918 20.8959198 42.48527527 C21.106465 43.27992691 21.31701019 44.07457855 21.53393555 44.89331055 C21.81348335 45.9330024 21.81348335 45.9330024 22.09867859 46.99369812 C22.49609375 49.09765625 22.49609375 49.09765625 22.49609375 54.09765625 C18.86609375 54.09765625 15.23609375 54.09765625 11.49609375 54.09765625 C10.01109375 49.14765625 10.01109375 49.14765625 8.49609375 44.09765625 C4.86609375 44.09765625 1.23609375 44.09765625 -2.50390625 44.09765625 C-3.49390625 47.39765625 -4.48390625 50.69765625 -5.50390625 54.09765625 C-9.13390625 54.09765625 -12.76390625 54.09765625 -16.50390625 54.09765625 C-15.86725725 47.69699322 -14.49392579 41.71068026 -12.81640625 35.5078125 C-12.55384033 34.52268173 -12.29127441 33.53755096 -12.02075195 32.52256775 C-11.46852137 30.45536477 -10.91371026 28.38884958 -10.35644531 26.32299805 C-9.50047358 23.14742136 -8.65395124 19.96943245 -7.80859375 16.79101562 C-7.27008503 14.77979956 -6.73104169 12.76872655 -6.19140625 10.7578125 C-5.93721924 9.80375015 -5.68303223 8.84968781 -5.42114258 7.86671448 C-5.18419678 6.9916777 -4.94725098 6.11664093 -4.703125 5.21508789 C-4.49518311 4.44201797 -4.28724121 3.66894806 -4.07299805 2.87245178 C-3.19309759 0.12835423 -2.97727425 0.11611834 0 0 Z M-0.50390625 13.09765625 C0.49609375 15.09765625 0.49609375 15.09765625 0.49609375 15.09765625 Z M2.49609375 22.09765625 C1.83609375 25.39765625 1.17609375 28.69765625 0.49609375 32.09765625 C2.14609375 32.09765625 3.79609375 32.09765625 5.49609375 32.09765625 C4.83609375 28.79765625 4.17609375 25.49765625 3.49609375 22.09765625 C3.16609375 22.09765625 2.83609375 22.09765625 2.49609375 22.09765625 Z M-6.50390625 36.09765625 C-6.50390625 36.42765625 -6.50390625 36.75765625 -6.50390625 37.09765625 C-0.23390625 37.09765625 6.03609375 37.09765625 12.49609375 37.09765625 C12.49609375 36.76765625 12.49609375 36.43765625 12.49609375 36.09765625 C6.22609375 36.09765625 -0.04390625 36.09765625 -6.50390625 36.09765625 Z M-7.50390625 37.09765625 C-6.50390625 39.09765625 -6.50390625 39.09765625 -6.50390625 39.09765625 Z " fill="#27C9D1" transform="translate(674.50390625,393.90234375)"/>
<path d="M0 0 C1.51400391 0.01740234 1.51400391 0.01740234 3.05859375 0.03515625 C4.07050781 0.04417969 5.08242188 0.05320312 6.125 0.0625 C7.29869141 0.07990234 7.29869141 0.07990234 8.49609375 0.09765625 C10.62790625 6.27822625 12.49895363 12.49159475 14.1953125 18.8046875 C14.43522415 19.69250412 14.6751358 20.58032074 14.9223175 21.49504089 C15.42366139 23.35430584 15.92357911 25.21395589 16.42211914 27.07397461 C17.1865887 29.9213112 17.95931552 32.76632611 18.73242188 35.61132812 C19.2205554 37.42564591 19.70820296 39.24009453 20.1953125 41.0546875 C20.42651291 41.90263382 20.65771332 42.75058014 20.8959198 43.6242218 C21.106465 44.41572128 21.31701019 45.20722076 21.53393555 46.02270508 C21.81348335 47.06120354 21.81348335 47.06120354 22.09867859 48.12068176 C22.49609375 50.09765625 22.49609375 50.09765625 22.49609375 54.09765625 C18.86609375 54.09765625 15.23609375 54.09765625 11.49609375 54.09765625 C10.01109375 49.14765625 10.01109375 49.14765625 8.49609375 44.09765625 C4.86609375 44.09765625 1.23609375 44.09765625 -2.50390625 44.09765625 C-3.49390625 47.39765625 -4.48390625 50.69765625 -5.50390625 54.09765625 C-9.46390625 54.09765625 -13.42390625 54.09765625 -17.50390625 54.09765625 C-15.99300519 48.31743415 -14.48133817 42.53741309 -12.96899414 36.75756836 C-12.45576823 34.79570793 -11.94274322 32.83379494 -11.42993164 30.87182617 C-9.99578483 25.38520221 -8.55850278 19.89942552 -7.11419678 14.41546631 C-6.5795407 12.38490679 -6.04670069 10.35386928 -5.51416016 8.32275391 C-5.24909668 7.32679199 -4.9840332 6.33083008 -4.7109375 5.3046875 C-4.49542236 4.49104736 -4.27990723 3.67740723 -4.05786133 2.83911133 C-3.19164556 0.11600993 -2.95345288 0.11518927 0 0 Z M1.49609375 6.09765625 C2.49609375 8.09765625 2.49609375 8.09765625 2.49609375 8.09765625 Z M2.49609375 22.09765625 C1.17982683 25.71739027 0.49609375 28.19332756 0.49609375 32.09765625 C2.14609375 32.09765625 3.79609375 32.09765625 5.49609375 32.09765625 C4.83609375 28.79765625 4.17609375 25.49765625 3.49609375 22.09765625 C3.16609375 22.09765625 2.83609375 22.09765625 2.49609375 22.09765625 Z M-6.50390625 36.09765625 C-6.50390625 36.42765625 -6.50390625 36.75765625 -6.50390625 37.09765625 C-0.23390625 37.09765625 6.03609375 37.09765625 12.49609375 37.09765625 C12.49609375 36.76765625 12.49609375 36.43765625 12.49609375 36.09765625 C6.22609375 36.09765625 -0.04390625 36.09765625 -6.50390625 36.09765625 Z " fill="#28CAD2" transform="translate(769.50390625,393.90234375)"/>
<path d="M0 0 C1.20970459 0.00523682 2.41940918 0.01047363 3.66577148 0.01586914 C4.97094727 0.0190918 6.27612305 0.02231445 7.62084961 0.02563477 C9.00952213 0.03399138 10.39819401 0.04245634 11.78686523 0.05102539 C13.17944179 0.05603873 14.57202005 0.06060193 15.96459961 0.06469727 C19.38456394 0.07653105 22.80444367 0.09301659 26.22436523 0.11352539 C26.22436523 3.74352539 26.22436523 7.37352539 26.22436523 11.11352539 C20.28436523 11.11352539 14.34436523 11.11352539 8.22436523 11.11352539 C8.22436523 14.41352539 8.22436523 17.71352539 8.22436523 21.11352539 C9.61461914 21.09612305 9.61461914 21.09612305 11.03295898 21.07836914 C12.23049805 21.0693457 13.42803711 21.06032227 14.66186523 21.05102539 C15.85682617 21.03942383 17.05178711 21.02782227 18.28295898 21.01586914 C21.22436523 21.11352539 21.22436523 21.11352539 22.22436523 22.11352539 C22.36693713 25.4497077 22.2666468 28.77328145 22.22436523 32.11352539 C17.60436523 32.11352539 12.98436523 32.11352539 8.22436523 32.11352539 C8.22436523 36.07352539 8.22436523 40.03352539 8.22436523 44.11352539 C14.16436523 44.11352539 20.10436523 44.11352539 26.22436523 44.11352539 C26.22436523 47.41352539 26.22436523 50.71352539 26.22436523 54.11352539 C16.32436523 54.11352539 6.42436523 54.11352539 -3.77563477 54.11352539 C-3.79853699 46.583784 -3.81846615 39.05416248 -3.83056641 31.52441406 C-3.83560847 28.96060782 -3.84244191 26.39680448 -3.85107422 23.83300781 C-3.86314541 20.15697518 -3.86886419 16.48098041 -3.87329102 12.80493164 C-3.8784523 11.65078262 -3.88361359 10.49663361 -3.88893127 9.30751038 C-3.88900681 8.24648605 -3.88908234 7.18546173 -3.88916016 6.09228516 C-3.89138077 5.15296646 -3.89360138 4.21364777 -3.89588928 3.24586487 C-3.7119405 -0.0158941 -3.30615002 0.13522383 0 0 Z M2.22436523 5.11352539 C2.22436523 5.44352539 2.22436523 5.77352539 2.22436523 6.11352539 C8.49436523 6.11352539 14.76436523 6.11352539 21.22436523 6.11352539 C21.22436523 5.78352539 21.22436523 5.45352539 21.22436523 5.11352539 C14.95436523 5.11352539 8.68436523 5.11352539 2.22436523 5.11352539 Z " fill="#1AC7CF" transform="translate(959.775634765625,393.886474609375)"/>
<path d="M0 0 C7.1465625 -0.0309375 7.1465625 -0.0309375 14.4375 -0.0625 C15.9423999 -0.071604 17.4472998 -0.08070801 18.99780273 -0.09008789 C20.17286377 -0.09258545 21.3479248 -0.09508301 22.55859375 -0.09765625 C24.37315063 -0.10551147 24.37315063 -0.10551147 26.22436523 -0.11352539 C29 0 29 0 30 1 C30.0979057 2.49738124 30.12974864 3.99942892 30.125 5.5 C30.12886719 6.72203125 30.12886719 6.72203125 30.1328125 7.96875 C30 10 30 10 29 11 C27.65732587 11.08631874 26.31025678 11.10706473 24.96484375 11.09765625 C24.15595703 11.09443359 23.34707031 11.09121094 22.51367188 11.08789062 C21.66353516 11.07951172 20.81339844 11.07113281 19.9375 11.0625 C19.08349609 11.05798828 18.22949219 11.05347656 17.34960938 11.04882812 C15.23304337 11.03700373 13.11651315 11.01906769 11 11 C11 14.3 11 17.6 11 21 C11.99902344 20.98839844 12.99804688 20.97679687 14.02734375 20.96484375 C15.31769531 20.95582031 16.60804688 20.94679688 17.9375 20.9375 C19.22527344 20.92589844 20.51304687 20.91429687 21.83984375 20.90234375 C25 21 25 21 26 22 C26.14257189 25.33618231 26.04228157 28.65975606 26 32 C21.05 32 16.1 32 11 32 C11 35.96 11 39.92 11 44 C17.27 44 23.54 44 30 44 C30 47.3 30 50.6 30 54 C20.1 54 10.2 54 0 54 C0 36.18 0 18.36 0 0 Z M6 5 C6 5.33 6 5.66 6 6 C11.94 6 17.88 6 24 6 C24 5.67 24 5.34 24 5 C18.06 5 12.12 5 6 5 Z M5 6 C5 20.19 5 34.38 5 49 C5.33 49 5.66 49 6 49 C6 34.81 6 20.62 6 6 C5.67 6 5.34 6 5 6 Z " fill="#1CC7CF" transform="translate(853,394)"/>
<path d="M0 0 C7.1465625 -0.0309375 7.1465625 -0.0309375 14.4375 -0.0625 C15.9423999 -0.071604 17.4472998 -0.08070801 18.99780273 -0.09008789 C20.17286377 -0.09258545 21.3479248 -0.09508301 22.55859375 -0.09765625 C24.37315063 -0.10551147 24.37315063 -0.10551147 26.22436523 -0.11352539 C29 0 29 0 30 1 C30.0979057 2.49738124 30.12974864 3.99942892 30.125 5.5 C30.12886719 6.72203125 30.12886719 6.72203125 30.1328125 7.96875 C30 10 30 10 29 11 C27.65732587 11.08631874 26.31025678 11.10706473 24.96484375 11.09765625 C24.15595703 11.09443359 23.34707031 11.09121094 22.51367188 11.08789062 C21.66353516 11.07951172 20.81339844 11.07113281 19.9375 11.0625 C19.08349609 11.05798828 18.22949219 11.05347656 17.34960938 11.04882812 C15.23304337 11.03700373 13.11651315 11.01906769 11 11 C11 14.3 11 17.6 11 21 C11.99902344 20.98839844 12.99804688 20.97679687 14.02734375 20.96484375 C15.31769531 20.95582031 16.60804688 20.94679688 17.9375 20.9375 C19.22527344 20.92589844 20.51304687 20.91429687 21.83984375 20.90234375 C25 21 25 21 26 22 C26.14257189 25.33618231 26.04228157 28.65975606 26 32 C21.05 32 16.1 32 11 32 C11 35.96 11 39.92 11 44 C17.27 44 23.54 44 30 44 C30 47.3 30 50.6 30 54 C20.1 54 10.2 54 0 54 C0 36.18 0 18.36 0 0 Z M6 5 C6 5.33 6 5.66 6 6 C11.94 6 17.88 6 24 6 C24 5.67 24 5.34 24 5 C18.06 5 12.12 5 6 5 Z M5 6 C5 20.19 5 34.38 5 49 C5.33 49 5.66 49 6 49 C6 34.81 6 20.62 6 6 C5.67 6 5.34 6 5 6 Z " fill="#1DC7CF" transform="translate(558,394)"/>
<path d="M0 0 C4.95 0 9.9 0 15 0 C15 23.43 15 46.86 15 71 C10.05 71 5.1 71 0 71 C0 47.57 0 24.14 0 0 Z " fill="#6ED9D8" transform="translate(274,445)"/>
<path d="M0 0 C1.47583955 0.0001591 2.95168467 0.00585225 4.42749023 0.01586914 C5.20293686 0.01728409 5.97838348 0.01869904 6.77732849 0.02015686 C9.26361893 0.02577194 11.74982059 0.03832693 14.23608398 0.05102539 C15.91772331 0.05603845 17.59936405 0.06060169 19.28100586 0.06469727 C23.41189965 0.07574626 27.54272674 0.09302094 31.67358398 0.11352539 C31.67358398 3.74352539 31.67358398 7.37352539 31.67358398 11.11352539 C27.71358398 11.11352539 23.75358398 11.11352539 19.67358398 11.11352539 C19.67358398 25.30352539 19.67358398 39.49352539 19.67358398 54.11352539 C16.04358398 54.11352539 12.41358398 54.11352539 8.67358398 54.11352539 C8.67358398 39.92352539 8.67358398 25.73352539 8.67358398 11.11352539 C4.38358398 11.11352539 0.09358398 11.11352539 -4.32641602 11.11352539 C-4.42407227 3.39868164 -4.42407227 3.39868164 -4.32641602 1.11352539 C-3.32641602 0.11352539 -3.32641602 0.11352539 0 0 Z M1.67358398 5.11352539 C1.67358398 5.44352539 1.67358398 5.77352539 1.67358398 6.11352539 C9.59358398 6.11352539 17.51358398 6.11352539 25.67358398 6.11352539 C25.67358398 5.78352539 25.67358398 5.45352539 25.67358398 5.11352539 C17.75358398 5.11352539 9.83358398 5.11352539 1.67358398 5.11352539 Z " fill="#21C8D0" transform="translate(1047.326416015625,393.886474609375)"/>
<path d="M0 0 C5.28 0 10.56 0 16 0 C16 15.51 16 31.02 16 47 C10.72 47 5.44 47 0 47 C0 31.49 0 15.98 0 0 Z " fill="#76DBDA" transform="translate(256,469)"/>
<path d="M0 0 C1.54642808 5.6702363 2.48517081 11.147205 3 17 C1.35 15.68 -0.3 14.36 -2 13 C-2.3309668 13.67764404 -2.66193359 14.35528809 -3.00292969 15.0534668 C-22.40843679 54.65579297 -45.97990408 89.58311912 -74.5625 123.1328125 C-77.06166185 126.07253172 -79.53422871 129.03226812 -82 132 C-82 128.50575904 -81.40649017 127.83576339 -79.359375 125.11328125 C-78.78952881 124.34814209 -78.21968262 123.58300293 -77.63256836 122.79467773 C-76.70069702 121.56599976 -76.70069702 121.56599976 -75.75 120.3125 C-75.11392822 119.46179932 -74.47785645 118.61109863 -73.82250977 117.73461914 C-71.88865162 115.15108105 -69.9454644 112.57480525 -68 110 C-66.9513959 108.60709219 -65.90318575 107.21388768 -64.85546875 105.8203125 C-64.36989502 105.17449219 -63.88432129 104.52867187 -63.3840332 103.86328125 C-60.91741088 100.57944717 -58.45634213 97.29153021 -56 94 C-55.48083008 93.30616211 -54.96166016 92.61232422 -54.42675781 91.89746094 C-35.93821647 67.0924696 -19.49310271 39.79983713 -8 11 C-9.65 11 -11.3 11 -13 11 C-11.83593677 9.83593677 -10.67129061 8.67245135 -9.50390625 7.51171875 C-8.4596661 6.46205398 -7.42652024 5.40128152 -6.40234375 4.33203125 C-2.21437055 0 -2.21437055 0 0 0 Z " fill="#7BDCDB" transform="translate(309,362)"/>
<path d="M0 0 C1.51980469 0.04640625 1.51980469 0.04640625 3.0703125 0.09375 C5.83162549 0.49371734 7.55612365 0.97469467 9.875 2.5 C12.32999449 6.18249173 12.13274914 8.04308096 12.140625 12.43359375 C12.14253845 13.10793961 12.1444519 13.78228546 12.14642334 14.47706604 C12.14778282 15.90178806 12.1441029 17.32652257 12.13574219 18.7512207 C12.12505538 20.926229 12.13563625 23.10040826 12.1484375 25.27539062 C12.14711554 26.66146015 12.14455238 28.04752916 12.140625 29.43359375 C12.13836914 30.69228271 12.13611328 31.95097168 12.13378906 33.24780273 C11.89071222 36.30254486 11.55531756 37.98196762 9.875 40.5 C6.58468311 42.84276531 3.3955066 42.8292427 -0.5625 42.875 C-2.23119141 42.91753906 -2.23119141 42.91753906 -3.93359375 42.9609375 C-7.91100028 42.38647732 -9.33830012 41.37666832 -12.125 38.5 C-12.7878418 35.20361328 -12.7878418 35.20361328 -12.82421875 31.3203125 C-12.83137405 30.62992889 -12.83852936 29.93954529 -12.84590149 29.22824097 C-12.85366803 27.77082609 -12.84868798 26.31329461 -12.83178711 24.85595703 C-12.81260708 22.63738625 -12.8518859 20.42512784 -12.89648438 18.20703125 C-12.97035033 6.40084459 -12.97035033 6.40084459 -9.46484375 2.5234375 C-5.88807783 0.35646119 -4.13260757 -0.21138658 0 0 Z M-7.125 8.5 C-7.741594 11.23117487 -7.741594 11.23117487 -7.65625 14.33984375 C-7.66140625 15.48517578 -7.6665625 16.63050781 -7.671875 17.81054688 C-7.65640625 19.00744141 -7.6409375 20.20433594 -7.625 21.4375 C-7.64046875 22.63052734 -7.6559375 23.82355469 -7.671875 25.05273438 C-7.66671875 26.19935547 -7.6615625 27.34597656 -7.65625 28.52734375 C-7.65173828 29.57656006 -7.64722656 30.62577637 -7.64257812 31.70678711 C-6.99703956 35.19056388 -5.94764915 36.40787814 -3.125 38.5 C0.28130521 38.44024026 2.74415301 38.3089163 5.56274414 36.29272461 C8.40593963 32.40852284 7.34102078 26.68545966 7.3125 22.0625 C7.33248047 20.91716797 7.35246094 19.77183594 7.37304688 18.59179688 C7.37208008 16.93954102 7.37208008 16.93954102 7.37109375 15.25390625 C7.37294678 14.24658447 7.3747998 13.2392627 7.37670898 12.20141602 C6.74232457 8.78561869 5.59324685 7.60215604 2.875 5.5 C-1.54879247 4.8548636 -3.95287869 5.34172525 -7.125 8.5 Z " fill="#19C7CF" transform="translate(465.125,399.5)"/>
<path d="M0 0 C2.31 0 4.62 0 7 0 C7.20496094 0.71027344 7.40992188 1.42054688 7.62109375 2.15234375 C7.89050781 3.07144531 8.15992188 3.99054688 8.4375 4.9375 C8.83775391 6.31228516 8.83775391 6.31228516 9.24609375 7.71484375 C9.79026051 9.9402493 9.79026051 9.9402493 11 11 C12.32 7.37 13.64 3.74 15 0 C16.98 0 18.96 0 21 0 C21 7.92 21 15.84 21 24 C19.35 24 17.7 24 16 24 C15.67 21.69 15.34 19.38 15 17 C14.34 19.31 13.68 21.62 13 24 C11.35 24 9.7 24 8 24 C7.67 22.68 7.34 21.36 7 20 C6.34 21.32 5.68 22.64 5 24 C3.35 24 1.7 24 0 24 C0 16.08 0 8.16 0 0 Z " fill="#23C9D1" transform="translate(397,472)"/>
<path d="M0 0 C1.98 0 3.96 0 6 0 C7.32 3.96 8.64 7.92 10 12 C11.32 8.04 12.64 4.08 14 0 C16.31 0 18.62 0 21 0 C21.02887236 3.81248426 21.04675492 7.6249407 21.0625 11.4375 C21.07087891 12.52611328 21.07925781 13.61472656 21.08789062 14.73632812 C21.09272461 16.28803711 21.09272461 16.28803711 21.09765625 17.87109375 C21.10551147 19.30859985 21.10551147 19.30859985 21.11352539 20.77514648 C21 23 21 23 20 24 C18.33382885 24.04063832 16.66611905 24.042721 15 24 C14.67 22.35 14.34 20.7 14 19 C13.01 21.475 13.01 21.475 12 24 C10.68 24 9.36 24 8 24 C7.34 22.02 6.68 20.04 6 18 C5.67 19.98 5.34 21.96 5 24 C3.35 24 1.7 24 0 24 C0 16.08 0 8.16 0 0 Z " fill="#57D2D9" transform="translate(682,472)"/>
<path d="M0 0 C1.65 0 3.3 0 5 0 C6.33333333 4 7.66666667 8 9 12 C9.16873478 10.56274129 9.33490737 9.12518162 9.5 7.6875 C9.5928125 6.88699219 9.685625 6.08648437 9.78125 5.26171875 C10.04813463 2.88103445 10.04813463 2.88103445 10 0 C11.98 0 13.96 0 16 0 C16.19916016 0.95712891 16.19916016 0.95712891 16.40234375 1.93359375 C16.57894531 2.75988281 16.75554688 3.58617187 16.9375 4.4375 C17.11152344 5.26121094 17.28554688 6.08492188 17.46484375 6.93359375 C17.80752994 8.97661204 17.80752994 8.97661204 19 10 C19.99 6.7 20.98 3.4 22 0 C23.65 0 25.3 0 27 0 C26.55327444 5.47238812 25.41043351 10.6370607 24 15.9375 C23.82178711 16.61240479 23.64357422 17.28730957 23.45996094 17.98266602 C22.1297533 22.8702467 22.1297533 22.8702467 21 24 C19.33382885 24.04063832 17.66611905 24.042721 16 24 C15.34 22.02 14.68 20.04 14 18 C13.01 19.98 12.02 21.96 11 24 C9.35 24 7.7 24 6 24 C4.99353274 20.56435978 3.9959455 17.12620371 3 13.6875 C2.71382812 12.71103516 2.42765625 11.73457031 2.1328125 10.72851562 C1.86210938 9.79072266 1.59140625 8.85292969 1.3125 7.88671875 C1.06113281 7.02264404 0.80976562 6.15856934 0.55078125 5.26831055 C0 3 0 3 0 0 Z " fill="#3ACDD4" transform="translate(909,472)"/>
<path d="M0 0 C5.28 0 10.56 0 16 0 C16 7.92 16 15.84 16 24 C10.72 24 5.44 24 0 24 C0 16.08 0 8.16 0 0 Z " fill="#79DCDB" transform="translate(238,492)"/>
<path d="M0 0 C1.98 0 3.96 0 6 0 C6.99 2.31 7.98 4.62 9 7 C9.33 4.69 9.66 2.38 10 0 C11.65 0 13.3 0 15 0 C15 7.92 15 15.84 15 24 C13.35 24 11.7 24 10 24 C9.01 22.02 8.02 20.04 7 18 C6.34 19.98 5.68 21.96 5 24 C3.35 24 1.7 24 0 24 C0 16.08 0 8.16 0 0 Z " fill="#4ED0D7" transform="translate(817,472)"/>
<path d="M0 0 C1.31291016 -0.02513672 1.31291016 -0.02513672 2.65234375 -0.05078125 C5.50891771 0.37978824 6.35802832 1.02177691 8.0625 3.3125 C8.75 6 8.75 6 9.0625 8.3125 C7.4125 8.6425 5.7625 8.9725 4.0625 9.3125 C3.4025 8.3225 2.7425 7.3325 2.0625 6.3125 C0.7425 6.3125 -0.5775 6.3125 -1.9375 6.3125 C-1.9375 10.2725 -1.9375 14.2325 -1.9375 18.3125 C-0.6175 18.3125 0.7025 18.3125 2.0625 18.3125 C2.3925 17.6525 2.7225 16.9925 3.0625 16.3125 C1.7425 15.9825 0.4225 15.6525 -0.9375 15.3125 C-0.9375 13.6625 -0.9375 12.0125 -0.9375 10.3125 C0.54156892 10.28560784 2.02077483 10.26615379 3.5 10.25 C4.32371094 10.23839844 5.14742188 10.22679687 5.99609375 10.21484375 C8.0625 10.3125 8.0625 10.3125 9.0625 11.3125 C9.046875 13.4921875 9.046875 13.4921875 8.8125 16.1875 C8.74546875 17.07179688 8.6784375 17.95609375 8.609375 18.8671875 C7.9787853 21.68682429 7.42377317 22.67080217 5.0625 24.3125 C1.02484234 25.07095503 -2.75801315 24.90224343 -6.4375 23.0625 C-10.05457896 18.84257455 -9.28600917 12.55713797 -8.9375 7.3125 C-7.35418755 1.88400017 -5.69846794 0.02510338 0 0 Z " fill="#34CCD4" transform="translate(493.9375,471.6875)"/>
<path d="M0 0 C1.98 0 3.96 0 6 0 C6.99 2.31 7.98 4.62 9 7 C9.33 4.69 9.66 2.38 10 0 C11.65 0 13.3 0 15 0 C15 7.92 15 15.84 15 24 C13.35 24 11.7 24 10 24 C8.68 21.36 7.36 18.72 6 16 C5.67 18.64 5.34 21.28 5 24 C3.35 24 1.7 24 0 24 C0 16.08 0 8.16 0 0 Z " fill="#73D8DD" transform="translate(444,472)"/>
<path d="M0 0 C1.31291016 -0.03867187 1.31291016 -0.03867187 2.65234375 -0.078125 C5.0625 0.25 5.0625 0.25 6.81640625 1.515625 C10.04783067 6.01328156 9.41431245 11.9556516 9.0625 17.25 C8.10960125 20.51708143 7.45633994 21.85616006 5.0625 24.25 C2.78515625 24.55078125 2.78515625 24.55078125 0.125 24.5625 C-1.18791016 24.58763672 -1.18791016 24.58763672 -2.52734375 24.61328125 C-5.39424145 24.18115567 -6.22276836 23.54526775 -7.9375 21.25 C-10.03320518 14.96288445 -9.78437261 7.2600644 -6.9375 1.25 C-4.48367866 0.02308933 -2.73765897 0.04824069 0 0 Z M-1.9375 5.25 C-3.25012571 6.33552366 -3.25012571 6.33552366 -3.03515625 8.97265625 C-3.02355469 10.07480469 -3.01195312 11.17695313 -3 12.3125 C-2.99097656 13.41722656 -2.98195313 14.52195312 -2.97265625 15.66015625 C-2.96105469 16.51480469 -2.94945312 17.36945313 -2.9375 18.25 C-1.28135343 18.63218767 0.38707024 18.96395102 2.0625 19.25 C3.37512571 18.16447634 3.37512571 18.16447634 3.16015625 15.52734375 C3.14855469 14.42519531 3.13695312 13.32304687 3.125 12.1875 C3.11597656 11.08277344 3.10695313 9.97804688 3.09765625 8.83984375 C3.08605469 7.98519531 3.07445312 7.13054687 3.0625 6.25 C1.40635343 5.86781233 -0.26207024 5.53604898 -1.9375 5.25 Z " fill="#2FCAD2" transform="translate(666.9375,471.75)"/>
<path d="M0 0 C11 0 11 0 13.6875 1.375 C16.59668653 7.19337305 15.02982616 13.82104305 14 20 C14.3577614 22.27650745 14.3577614 22.27650745 15 24 C13.02 24 11.04 24 9 24 C8.34 22.35 7.68 20.7 7 19 C6.01 21.475 6.01 21.475 5 24 C3.35 24 1.7 24 0 24 C0 16.08 0 8.16 0 0 Z M6 5 C6 7.31 6 9.62 6 12 C6.99 12 7.98 12 9 12 C10.00217064 8.41672247 10.00217064 8.41672247 9 5 C8.01 5 7.02 5 6 5 Z " fill="#2DCBD3" transform="translate(603,472)"/>
<path d="M0 0 C2.47211853 3.70817779 2.36730992 6.6425901 2.375 10.9375 C2.39949219 11.65357422 2.42398438 12.36964844 2.44921875 13.10742188 C2.4684152 16.55958407 2.2670888 18.62092553 0.2578125 21.47265625 C-2.2492171 23.16858804 -3.5019459 23.54106923 -6.5 23.5 C-7.2528125 23.5103125 -8.005625 23.520625 -8.78125 23.53125 C-11.98854065 22.76330717 -13.09274458 21.69059247 -15 19 C-15.40100915 16.16934716 -15.56122899 13.81653341 -15.5 11 C-15.51546875 10.2884375 -15.5309375 9.576875 -15.546875 8.84375 C-15.52050028 5.30953698 -15.28859359 3.36794213 -13.08203125 0.5546875 C-8.45739877 -2.89860279 -5.33391903 -1.97552557 0 0 Z M-8 4 C-10.46270288 7.69405432 -10.22985417 9.63277072 -10 14 C-9.57145005 16.31036915 -9.57145005 16.31036915 -9 18 C-6.52733235 17.65555119 -6.52733235 17.65555119 -4 17 C-2.42829004 13.85658007 -2.76824217 10.44228549 -3 7 C-3.33 6.01 -3.66 5.02 -4 4 C-5.32 4 -6.64 4 -8 4 Z " fill="#22C8D0" transform="translate(573,473)"/>
<path d="M0 0 C1.98 0 3.96 0 6 0 C6 2.97 6 5.94 6 9 C7.65 9 9.3 9 11 9 C11 6.03 11 3.06 11 0 C12.65 0 14.3 0 16 0 C16 7.92 16 15.84 16 24 C14.35 24 12.7 24 11 24 C11 20.7 11 17.4 11 14 C9.35 14 7.7 14 6 14 C6 17.3 6 20.6 6 24 C4.02 24 2.04 24 0 24 C0 16.08 0 8.16 0 0 Z " fill="#38CDD4" transform="translate(971,472)"/>
<path d="M0 0 C1.65 0 3.3 0 5 0 C5 2.97 5 5.94 5 9 C6.65 9 8.3 9 10 9 C9.979375 7.700625 9.95875 6.40125 9.9375 5.0625 C9.91600546 3.70834367 9.92851801 2.35243917 10 1 C10.33 0.67 10.66 0.34 11 0 C12.65 0 14.3 0 16 0 C16 7.92 16 15.84 16 24 C14.02 24 12.04 24 10 24 C10 20.7 10 17.4 10 14 C8.35 14 6.7 14 5 14 C5 17.3 5 20.6 5 24 C3.35 24 1.7 24 0 24 C0 16.08 0 8.16 0 0 Z " fill="#27CAD1" transform="translate(637,472)"/>
<path d="M0 0 C1.98 0 3.96 0 6 0 C6.33 5.94 6.66 11.88 7 18 C8.32 18 9.64 18 11 18 C11.495 9.09 11.495 9.09 12 0 C13.65 0 15.3 0 17 0 C17.08703823 3.43734063 17.14040272 6.87439837 17.1875 10.3125 C17.21263672 11.28896484 17.23777344 12.26542969 17.26367188 13.27148438 C17.27333984 14.20927734 17.28300781 15.14707031 17.29296875 16.11328125 C17.3086792 16.97735596 17.32438965 17.84143066 17.34057617 18.73168945 C16.92668098 21.48832045 16.20746678 22.34861516 14 24 C11.625 24.3984375 11.625 24.3984375 9 24.375 C8.13375 24.38273437 7.2675 24.39046875 6.375 24.3984375 C3.55038385 23.92457097 2.70118344 23.26470045 1 21 C0.07811539 18.23434618 -0.11785222 16.61716298 -0.09765625 13.76953125 C-0.09282227 12.56586914 -0.09282227 12.56586914 -0.08789062 11.33789062 C-0.07951172 10.50451172 -0.07113281 9.67113281 -0.0625 8.8125 C-0.05798828 7.96751953 -0.05347656 7.12253906 -0.04882812 6.25195312 C-0.03705403 4.16793845 -0.0191189 2.08396023 0 0 Z " fill="#3ACDD4" transform="translate(580,472)"/>
<path d="M0 0 C11 0 11 0 13.6875 1.375 C15.75766907 5.51533815 15.74466633 9.47182697 15 14 C13.3125 16.625 13.3125 16.625 11 18 C8.25 18.25 8.25 18.25 6 18 C6.020625 18.804375 6.04125 19.60875 6.0625 20.4375 C6 23 6 23 5 24 C3.35 24 1.7 24 0 24 C0 16.08 0 8.16 0 0 Z M6 5 C6 7.31 6 9.62 6 12 C6.99 12 7.98 12 9 12 C9.33 10.35 9.66 8.7 10 7 C8.68 6.34 7.36 5.68 6 5 Z " fill="#77D7DD" transform="translate(779,472)"/>
<path d="M0 0 C2 1.3125 2 1.3125 3 3 C3 3.99 3 4.98 3 6 C0.08517222 6.80967438 -1.46113217 7.21845993 -4.3125 6.0625 C-4.869375 5.711875 -5.42625 5.36125 -6 5 C-4.05417429 7.91873857 -3.37308173 8.54874491 -0.4375 10.0625 C3 12 3 12 4 14 C4.38080215 17.50337981 4.40245078 19.36278626 2.5 22.375 C-0.54582422 24.35478574 -2.51831477 24.56634411 -6.09375 24.40625 C-8.94809908 23.7979461 -10.28977272 22.28030304 -12 20 C-11.01 18.68 -10.02 17.36 -9 16 C-8.401875 16.309375 -7.80375 16.61875 -7.1875 16.9375 C-4.91043228 18.10209704 -4.91043228 18.10209704 -2 19 C-2.5337314 17.08451836 -2.5337314 17.08451836 -4 15 C-5.175625 14.401875 -6.35125 13.80375 -7.5625 13.1875 C-10.77380977 11.48779002 -10.9230231 11.22687928 -12.1875 7.5 C-12 4 -12 4 -10.5625 1.5625 C-6.76314859 -0.75417769 -4.42193268 -0.49132585 0 0 Z " fill="#22C8D0" transform="translate(1057,472)"/>
<path d="M0 0 C2 1.3125 2 1.3125 3 3 C3 3.99 3 4.98 3 6 C1.3125 7.1875 1.3125 7.1875 -1 8 C-3.75 6.625 -3.75 6.625 -6 5 C-6 5.99 -6 6.98 -6 8 C-5.0925 8.2475 -4.185 8.495 -3.25 8.75 C0.23073245 10.08874325 1.91332506 10.91172109 4 14 C3.93957505 17.44422213 3.60093625 19.90417507 1.9375 22.9375 C-1.24280899 24.68154041 -4.50915798 24.52678703 -8 24 C-10.5 22.6875 -10.5 22.6875 -12 21 C-12 20.01 -12 19.02 -12 18 C-10.35 17.34 -8.7 16.68 -7 16 C-6.67 16.66 -6.34 17.32 -6 18 C-5.01 18 -4.02 18 -3 18 C-3 17.34 -3 16.68 -3 16 C-4.75674121 14.6719936 -4.75674121 14.6719936 -6.9375 13.4375 C-10.94347826 11.05652174 -10.94347826 11.05652174 -12 10 C-12.5789111 3.74776017 -12.5789111 3.74776017 -10.5 1.0625 C-6.74515828 -0.53330773 -4.08109691 -0.3886759 0 0 Z " fill="#33CCD3" transform="translate(888,472)"/>
<path d="M0 0 C1.8125 2.125 1.8125 2.125 3 4 C2.34 4.66 1.68 5.32 1 6 C-0.875 5.6875 -0.875 5.6875 -3 5 C-3.7425 4.814375 -4.485 4.62875 -5.25 4.4375 C-6.11625 4.2209375 -6.11625 4.2209375 -7 4 C-4.37518523 6.91646086 -1.27146762 8.86643416 2 11 C3 12 3 12 3.25 15.3125 C2.99083876 19.13512822 2.81343016 20.47761434 0 23 C-2.96518765 24.09243756 -4.56550047 24.1137975 -7.625 23.3125 C-10.22977805 21.87301739 -11.42118111 20.49287194 -13 18 C-12.01 17.01 -11.02 16.02 -10 15 C-9.401875 15.309375 -8.80375 15.61875 -8.1875 15.9375 C-5.91043228 17.10209704 -5.91043228 17.10209704 -3 18 C-3 16.68 -3 15.36 -3 14 C-4.36125 13.62875 -4.36125 13.62875 -5.75 13.25 C-9.20103402 11.92267922 -10.89433866 11.03215233 -13 8 C-12.93410719 4.77125213 -12.59078311 2.81584335 -10.6875 0.1875 C-6.78219394 -2.56067834 -4.15948722 -2.23972389 0 0 Z " fill="#47CFD6" transform="translate(850,473)"/>
<path d="M0 0 C4.62 0 9.24 0 14 0 C14 1.65 14 3.3 14 5 C11.36 5 8.72 5 6 5 C6 6.32 6 7.64 6 9 C7.98 9 9.96 9 12 9 C12 10.65 12 12.3 12 14 C10.02 14 8.04 14 6 14 C6 15.65 6 17.3 6 19 C8.64 19 11.28 19 14 19 C14 20.65 14 22.3 14 24 C9.38 24 4.76 24 0 24 C0 16.08 0 8.16 0 0 Z " fill="#4BD0D7" transform="translate(798,472)"/>
<path d="M0 0 C1.98 0 3.96 0 6 0 C7.00410968 3.62387457 8.00258908 7.24927651 9 10.875 C9.28617187 11.90753906 9.57234375 12.94007813 9.8671875 14.00390625 C10.13789063 14.99003906 10.40859375 15.97617187 10.6875 16.9921875 C10.93886719 17.90339355 11.19023437 18.81459961 11.44921875 19.75341797 C12 22 12 22 12 24 C10.02 24 8.04 24 6 24 C5.67 22.35 5.34 20.7 5 19 C3.35 19 1.7 19 0 19 C-0.33 20.65 -0.66 22.3 -1 24 C-2.65 24 -4.3 24 -6 24 C-5.36145015 18.47324097 -4.06306646 13.37632649 -2.4375 8.0625 C-2.20353516 7.28326172 -1.96957031 6.50402344 -1.72851562 5.70117188 C-1.15682579 3.79942813 -0.57904309 1.89951774 0 0 Z M2 11 C2 11.99 2 12.98 2 14 C2.66 13.67 3.32 13.34 4 13 C3.34 12.34 2.68 11.68 2 11 Z " fill="#46CFD6" transform="translate(428,472)"/>
<path d="M0 0 C1.98 0 3.96 0 6 0 C7.00410968 3.62387457 8.00258908 7.24927651 9 10.875 C9.28617188 11.90753906 9.57234375 12.94007813 9.8671875 14.00390625 C10.13789062 14.99003906 10.40859375 15.97617187 10.6875 16.9921875 C10.93886719 17.90339355 11.19023438 18.81459961 11.44921875 19.75341797 C12 22 12 22 12 24 C10.02 24 8.04 24 6 24 C5.67 22.68 5.34 21.36 5 20 C3.35 19.67 1.7 19.34 0 19 C-0.33 20.65 -0.66 22.3 -1 24 C-2.65 24 -4.3 24 -6 24 C-4.56933303 15.8301386 -2.35862583 7.94605012 0 0 Z M2 11 C2 11.99 2 12.98 2 14 C2.66 13.67 3.32 13.34 4 13 C3.34 12.34 2.68 11.68 2 11 Z " fill="#55D1D8" transform="translate(1030,472)"/>
<path d="M0 0 C4.62 0 9.24 0 14 0 C13.67 1.65 13.34 3.3 13 5 C10.69 5 8.38 5 6 5 C6 6.32 6 7.64 6 9 C7.98 9 9.96 9 12 9 C12 10.65 12 12.3 12 14 C10.02 14 8.04 14 6 14 C6 15.65 6 17.3 6 19 C8.64 19 11.28 19 14 19 C13.67 20.65 13.34 22.3 13 24 C8.71 24 4.42 24 0 24 C0 16.08 0 8.16 0 0 Z " fill="#4ED1D8" transform="translate(858,472)"/>
<path d="M0 0 C4.62 0 9.24 0 14 0 C13.67 1.65 13.34 3.3 13 5 C10.69 5 8.38 5 6 5 C6 6.32 6 7.64 6 9 C7.98 9 9.96 9 12 9 C12 10.65 12 12.3 12 14 C10.02 14 8.04 14 6 14 C6 15.65 6 17.3 6 19 C8.64 19 11.28 19 14 19 C13.67 20.65 13.34 22.3 13 24 C8.71 24 4.42 24 0 24 C0 16.08 0 8.16 0 0 Z " fill="#4ED1D8" transform="translate(740,472)"/>
<path d="M0 0 C1.4540625 0.0309375 1.4540625 0.0309375 2.9375 0.0625 C3.78107963 3.122271 4.6105202 6.1857046 5.4375 9.25 C5.67597656 10.11431641 5.91445313 10.97863281 6.16015625 11.86914062 C6.38574219 12.71025391 6.61132812 13.55136719 6.84375 14.41796875 C7.05322266 15.18778076 7.26269531 15.95759277 7.47851562 16.75073242 C7.97288729 19.24073523 8.01583519 21.53031499 7.9375 24.0625 C6.2875 24.0625 4.6375 24.0625 2.9375 24.0625 C2.6075 22.4125 2.2775 20.7625 1.9375 19.0625 C0.2875 19.0625 -1.3625 19.0625 -3.0625 19.0625 C-3.3925 20.7125 -3.7225 22.3625 -4.0625 24.0625 C-5.7125 24.0625 -7.3625 24.0625 -9.0625 24.0625 C-8.61577444 18.59011188 -7.47293351 13.4254393 -6.0625 8.125 C-5.88428711 7.45009521 -5.70607422 6.77519043 -5.52246094 6.07983398 C-3.88937148 0.07937493 -3.88937148 0.07937493 0 0 Z M-1.0625 10.0625 C-1.0625 11.3825 -1.0625 12.7025 -1.0625 14.0625 C-0.4025 13.7325 0.2575 13.4025 0.9375 13.0625 C0.2775 12.0725 -0.3825 11.0825 -1.0625 10.0625 Z " fill="#51D1D7" transform="translate(473.0625,471.9375)"/>
<path d="M0 0 C1.98 0 3.96 0 6 0 C6.66 1.32 7.32 2.64 8 4 C8.391875 3.34 8.78375 2.68 9.1875 2 C11 0 11 0 13.6875 -0.25 C14.8321875 -0.12625 14.8321875 -0.12625 16 0 C14.125 5.75 14.125 5.75 13 8 C12.40545914 12.9941432 13.75451563 16.01850716 16.125 20.265625 C17 22 17 22 17 24 C14.6875 24.3125 14.6875 24.3125 12 24 C10.18116991 21.6167054 9 20.04181663 9 17 C8.34 17 7.68 17 7 17 C6.34 19.31 5.68 21.62 5 24 C3.02 24 1.04 24 -1 24 C-0.59265625 23.16597656 -0.1853125 22.33195312 0.234375 21.47265625 C3.31403722 15.07181752 3.31403722 15.07181752 3.44140625 8.203125 C2.41550146 6.03062074 1.25756779 4.0429633 0 2 C0 1.34 0 0.68 0 0 Z " fill="#30CBD2" transform="translate(758,472)"/>
<path d="M0 0 C4.29 0 8.58 0 13 0 C13 1.65 13 3.3 13 5 C10.36 5 7.72 5 5 5 C5 6.32 5 7.64 5 9 C7.31 9 9.62 9 12 9 C12 10.65 12 12.3 12 14 C9.69 14 7.38 14 5 14 C5 15.65 5 17.3 5 19 C7.64 19 10.28 19 13 19 C13 20.65 13 22.3 13 24 C8.71 24 4.42 24 0 24 C0 16.08 0 8.16 0 0 Z " fill="#2AC8D0" transform="translate(508,472)"/>
<path d="M0 0 C4.29 0 8.58 0 13 0 C13 1.65 13 3.3 13 5 C10.36 5 7.72 5 5 5 C5 6.32 5 7.64 5 9 C6.98 9 8.96 9 11 9 C11.33 10.65 11.66 12.3 12 14 C9.69 14 7.38 14 5 14 C5 15.65 5 17.3 5 19 C7.64 19 10.28 19 13 19 C13 20.65 13 22.3 13 24 C8.71 24 4.42 24 0 24 C0 16.08 0 8.16 0 0 Z " fill="#2AC8D0" transform="translate(1066,472)"/>
<path d="M0 0 C4.29 0 8.58 0 13 0 C13 1.65 13 3.3 13 5 C10.36 5 7.72 5 5 5 C5 6.32 5 7.64 5 9 C6.98 9 8.96 9 11 9 C11.33 10.65 11.66 12.3 12 14 C9.69 14 7.38 14 5 14 C5 15.65 5 17.3 5 19 C7.64 19 10.28 19 13 19 C13 20.65 13 22.3 13 24 C8.71 24 4.42 24 0 24 C0 16.08 0 8.16 0 0 Z " fill="#2AC8D0" transform="translate(708,472)"/>
<path d="M0 0 C4.29 0 8.58 0 13 0 C13 1.65 13 3.3 13 5 C10.36 5 7.72 5 5 5 C5 6.32 5 7.64 5 9 C6.98 9 8.96 9 11 9 C11 10.65 11 12.3 11 14 C9.02 14 7.04 14 5 14 C5 15.65 5 17.3 5 19 C7.64 19 10.28 19 13 19 C13 20.65 13 22.3 13 24 C8.71 24 4.42 24 0 24 C0 16.08 0 8.16 0 0 Z " fill="#37CBD3" transform="translate(1007,472)"/>
<path d="M0 0 C1.9685054 2.9527581 2.75507061 5.12945638 3.7265625 8.5078125 C4.0359375 9.57644531 4.3453125 10.64507812 4.6640625 11.74609375 C4.98117187 12.86113281 5.29828125 13.97617187 5.625 15.125 C5.94984375 16.24777344 6.2746875 17.37054688 6.609375 18.52734375 C9 26.83426339 9 26.83426339 9 28 C3.39 28 -2.22 28 -8 28 C-6.64909235 21.50121609 -4.92169754 15.24896681 -2.875 8.9375 C-2.45927734 7.6390918 -2.45927734 7.6390918 -2.03515625 6.31445312 C-1.36031038 4.2084686 -0.68188659 2.10371313 0 0 Z M0 14 C-1.31626692 17.61973402 -2 20.09567131 -2 24 C-0.35 24 1.3 24 3 24 C2.34 20.7 1.68 17.4 1 14 C0.67 14 0.34 14 0 14 Z " fill="#0FC4CD" transform="translate(772,402)"/>
<path d="M0 0 C0.66 0 1.32 0 2 0 C2.79298919 2.832969 3.58442272 5.66635785 4.375 8.5 C4.59671875 9.29148437 4.8184375 10.08296875 5.046875 10.8984375 C5.26601563 11.68476563 5.48515625 12.47109375 5.7109375 13.28125 C5.90993652 13.99345703 6.10893555 14.70566406 6.31396484 15.43945312 C7.253985 18.94796965 8.1190471 22.47618841 9 26 C3.39 26 -2.22 26 -8 26 C-5.86728046 17.01211049 -3.81569759 8.44324574 0 0 Z M0 12 C-0.66 15.3 -1.32 18.6 -2 22 C-0.35 22 1.3 22 3 22 C2.34 18.7 1.68 15.4 1 12 C0.67 12 0.34 12 0 12 Z " fill="#12C5CE" transform="translate(677,404)"/>
<path d="M0 0 C5.28 0 10.56 0 16 0 C16 1.65 16 3.3 16 5 C14.35 5 12.7 5 11 5 C11 11.27 11 17.54 11 24 C9.02 24 7.04 24 5 24 C5 17.73 5 11.46 5 5 C3.35 5 1.7 5 0 5 C0 3.35 0 1.7 0 0 Z " fill="#54D1D8" transform="translate(951,472)"/>
<path d="M0 0 C1.98 0 3.96 0 6 0 C6.66 1.32 7.32 2.64 8 4 C8.391875 3.34 8.78375 2.68 9.1875 2 C11 0 11 0 13.6875 -0.25 C14.8321875 -0.12625 14.8321875 -0.12625 16 0 C14.66666667 4 13.33333333 8 12 12 C11.77674186 14.05893621 11.59294241 16.12233653 11.4375 18.1875 C11.35371094 19.27417969 11.26992188 20.36085938 11.18359375 21.48046875 C11.12300781 22.31191406 11.06242188 23.14335937 11 24 C9.35 24 7.7 24 6 24 C5.98582031 23.35675781 5.97164062 22.71351563 5.95703125 22.05078125 C5.53224641 14.00283058 3.17319936 7.36510111 0 0 Z " fill="#51D1D8" transform="translate(538,472)"/>
<path d="M0 0 C0.99 0.495 0.99 0.495 2 1 C2 7.6 2 14.2 2 21 C6.95 21 11.9 21 17 21 C17 21.66 17 22.32 17 23 C12.05 23 7.1 23 2 23 C2 29.6 2 36.2 2 43 C7.94 43 13.88 43 20 43 C20 43.66 20 44.32 20 45 C13.4 45 6.8 45 0 45 C0 30.15 0 15.3 0 0 Z " fill="#9AE0E5" transform="translate(961,399)"/>
<path d="M0 0 C1.98 0 3.96 0 6 0 C9 6.5 9 6.5 9 11 C9.66 11 10.32 11 11 11 C11 7.7 11 4.4 11 1 C11.66 1.33 12.32 1.66 13 2 C12.67 7.28 12.34 12.56 12 18 C9.68260704 14.91014273 8.00626667 12.28287889 6.3125 8.875 C5.87550781 8.00617188 5.43851563 7.13734375 4.98828125 6.2421875 C4 4 4 4 4 2 C3.34 2 2.68 2 2 2 C2.6496875 3.15628906 2.6496875 3.15628906 3.3125 4.3359375 C4.1478125 5.84027344 4.1478125 5.84027344 5 7.375 C5.8353125 8.87160156 5.8353125 8.87160156 6.6875 10.3984375 C8 13 8 13 8 15 C7.34 15 6.68 15 6 15 C5.67 17.97 5.34 20.94 5 24 C3.35 24 1.7 24 0 24 C0 16.08 0 8.16 0 0 Z " fill="#56D2D9" transform="translate(817,472)"/>
<path d="M0 0 C1.98 0 3.96 0 6 0 C6 7.92 6 15.84 6 24 C4.02 24 2.04 24 0 24 C0 16.08 0 8.16 0 0 Z " fill="#66D6DD" transform="translate(941,472)"/>
<path d="M0 0 C2.97 0 5.94 0 9 0 C9.33 0.66 9.66 1.32 10 2 C7.36 1.67 4.72 1.34 2 1 C2 4.96 2 8.92 2 13 C5.465 12.505 5.465 12.505 9 12 C9.103125 10.72125 9.20625 9.4425 9.3125 8.125 C9.48828125 5.9453125 9.48828125 5.9453125 10 4 C10.99 3.34 11.98 2.68 13 2 C13.09767435 7.49146893 12.90430681 12.57415916 12 18 C12.3577614 20.27650745 12.3577614 20.27650745 13 22 C11.02 22 9.04 22 7 22 C6.34 20.35 5.68 18.7 5 17 C4.34 18.32 3.68 19.64 3 21 C3.020625 20.030625 3.04125 19.06125 3.0625 18.0625 C3.35618499 15.12534105 3.35618499 15.12534105 2 14 C2 15.65 2 17.3 2 19 C1.34 19.33 0.68 19.66 0 20 C0 13.4 0 6.8 0 0 Z " fill="#78D7DD" transform="translate(605,474)"/>
<path d="M0 0 C1.65 0 3.3 0 5 0 C5 7.92 5 15.84 5 24 C3.35 24 1.7 24 0 24 C-1.32 21.36 -2.64 18.72 -4 16 C-4.33 18.31 -4.66 20.62 -5 23 C-6.32 22.67 -7.64 22.34 -9 22 C-8.34 22 -7.68 22 -7 22 C-7 16.39 -7 10.78 -7 5 C-3.20815013 10.05579983 -0.7774242 15.32171052 2 21 C2.33 14.4 2.66 7.8 3 1 C2.34 1 1.68 1 1 1 C1 4.63 1 8.26 1 12 C0.34 11.67 -0.32 11.34 -1 11 C-0.67 7.37 -0.34 3.74 0 0 Z " fill="#29C9D1" transform="translate(454,472)"/>
<path d="M0 0 C1.98 0 3.96 0 6 0 C7.17571451 3.67410785 7.07366746 7.16929183 7 11 C4.4345406 8.4345406 4.45953913 6.52313332 4 3 C4 6.19892281 4.20108841 8.25408155 5 11.25 C5.33 12.4875 5.66 13.725 6 15 C3.69 15 1.38 15 -1 15 C-1.66 17.31 -2.32 19.62 -3 22 C-3.66 22 -4.32 22 -5 22 C-4.47458553 14.2501365 -2.44408524 7.3549914 0 0 Z M2 11 C2 11.99 2 12.98 2 14 C2.66 13.67 3.32 13.34 4 13 C3.34 12.34 2.68 11.68 2 11 Z " fill="#30CBD3" transform="translate(428,472)"/>
<path d="M0 0 C2 1.3125 2 1.3125 3 3 C3 3.99 3 4.98 3 6 C-1.05431692 7.15837626 -3.21812119 6.83691257 -7 5 C-7.33 5.99 -7.66 6.98 -8 8 C-8.33 8 -8.66 8 -9 8 C-9 8.66 -9 9.32 -9 10 C-8.0925 10.2475 -7.185 10.495 -6.25 10.75 C-2.89648511 12.03981342 -1.32291764 13.31971042 1 16 C0.67 16.99 0.34 17.98 0 19 C-0.66 19 -1.32 19 -2 19 C-2.2784375 18.13375 -2.2784375 18.13375 -2.5625 17.25 C-3.96204431 14.64040268 -3.96204431 14.64040268 -7.5625 13.1875 C-10.77380977 11.48779002 -10.9230231 11.22687928 -12.1875 7.5 C-12 4 -12 4 -10.5625 1.5625 C-6.76314859 -0.75417769 -4.42193268 -0.49132585 0 0 Z " fill="#33CCD3" transform="translate(1057,472)"/>
<path d="M0 0 C4.95 0 9.9 0 15 0 C15 2.64 15 5.28 15 8 C10.05 8 5.1 8 0 8 C0 5.36 0 2.72 0 0 Z " fill="#7CDCDB" transform="translate(221,508)"/>
<path d="M0 0 C1.65 0 3.3 0 5 0 C5 2.97 5 5.94 5 9 C6.65 9 8.3 9 10 9 C10 6.36 10 3.72 10 1 C10.33 1 10.66 1 11 1 C11 3.97 11 6.94 11 10 C11.66 10.33 12.32 10.66 13 11 C13 8.03 13 5.06 13 2 C13.33 2 13.66 2 14 2 C14 8.6 14 15.2 14 22 C13.67 22 13.34 22 13 22 C13 18.7 13 15.4 13 12 C9.7 12 6.4 12 3 12 C3 14.97 3 17.94 3 21 C2.67 21 2.34 21 2 21 C2.00785522 20.14450562 2.00785522 20.14450562 2.01586914 19.27172852 C2.03658221 16.70199677 2.0496419 14.13228253 2.0625 11.5625 C2.07087891 10.66466797 2.07925781 9.76683594 2.08789062 8.84179688 C2.09111328 7.98779297 2.09433594 7.13378906 2.09765625 6.25390625 C2.10289307 5.46314697 2.10812988 4.6723877 2.11352539 3.85766602 C2.20495909 1.98407311 2.20495909 1.98407311 1 1 C1 8.26 1 15.52 1 23 C2.32 23.33 3.64 23.66 5 24 C3.35 24 1.7 24 0 24 C0 16.08 0 8.16 0 0 Z " fill="#5ED2D9" transform="translate(637,472)"/>
<path d="M0 0 C1.65 0 3.3 0 5 0 C4.55327444 5.47238812 3.41043351 10.6370607 2 15.9375 C1.82178711 16.61240479 1.64357422 17.28730957 1.45996094 17.98266602 C0.1297533 22.8702467 0.1297533 22.8702467 -1 24 C-2.66617115 24.04063832 -4.33388095 24.042721 -6 24 C-6 23.01 -6 22.02 -6 21 C-5.01 21 -4.02 21 -3 21 C-2.81509993 18.67642489 -2.81509993 18.67642489 -5 16 C-5 15.01 -5 14.02 -5 13 C-4.34 13 -3.68 13 -3 13 C-2.86722656 12.22914063 -2.73445312 11.45828125 -2.59765625 10.6640625 C-2.33275391 9.15972656 -2.33275391 9.15972656 -2.0625 7.625 C-1.88847656 6.62726563 -1.71445312 5.62953125 -1.53515625 4.6015625 C-1 2 -1 2 0 0 Z " fill="#4FD1D8" transform="translate(931,472)"/>
<path d="M0 0 C1.98 0 3.96 0 6 0 C6 7.92 6 15.84 6 24 C4.35 24 2.7 24 1 24 C0.77857745 22.04310341 0.5732432 20.08438048 0.375 18.125 C0.25898438 17.03445313 0.14296875 15.94390625 0.0234375 14.8203125 C0.01570313 13.88960938 0.00796875 12.95890625 0 12 C0.66 11.34 1.32 10.68 2 10 C2 14.29 2 18.58 2 23 C2.99 23 3.98 23 5 23 C4.34 22.67 3.68 22.34 3 22 C2.67 16.39 2.34 10.78 2 5 C0.43628008 9.88885232 0.43628008 9.88885232 -1.11083984 14.78295898 C-1.6848387 16.54115158 -2.34074966 18.27196502 -3 20 C-3.66 20.33 -4.32 20.66 -5 21 C-4.04296522 13.61394333 -2.95870791 6.85882288 0 0 Z " fill="#6ED6DC" transform="translate(412,472)"/>
<path d="M0 0 C1.670625 0.061875 1.670625 0.061875 3.375 0.125 C3.375 0.455 3.375 0.785 3.375 1.125 C1.065 1.785 -1.245 2.445 -3.625 3.125 C-3.295 3.785 -2.965 4.445 -2.625 5.125 C-2.3974985 6.99556791 -2.21537189 8.87185958 -2.0625 10.75 C-1.97871094 11.75289063 -1.89492188 12.75578125 -1.80859375 13.7890625 C-1.74800781 14.55992187 -1.68742187 15.33078125 -1.625 16.125 C-0.305 16.125 1.015 16.125 2.375 16.125 C2.705 15.465 3.035 14.805 3.375 14.125 C2.055 13.795 0.735 13.465 -0.625 13.125 C-0.625 11.475 -0.625 9.825 -0.625 8.125 C2.345 8.125 5.315 8.125 8.375 8.125 C8.375 8.455 8.375 8.785 8.375 9.125 C5.735 9.125 3.095 9.125 0.375 9.125 C1.44145115 10.42133621 1.44145115 10.42133621 3.9375 10.1875 C4.741875 10.166875 5.54625 10.14625 6.375 10.125 C6.625 16.75 6.625 16.75 4.375 20.125 C0.02913172 20.52007893 -1.94503497 20.57831002 -5.625 18.125 C-5.90113568 15.36958159 -5.99757625 12.87408898 -5.9375 10.125 C-5.94072266 9.38765625 -5.94394531 8.6503125 -5.94726562 7.890625 C-5.87010296 0.20241734 -5.87010296 0.20241734 0 0 Z " fill="#65D5DB" transform="translate(493.625,473.875)"/>
<path d="M0 0 C1.22589844 0.29197266 1.22589844 0.29197266 2.4765625 0.58984375 C3.41628906 0.82380859 3.41628906 0.82380859 4.375 1.0625 C4.375 1.3925 4.375 1.7225 4.375 2.0625 C2.6734375 2.2790625 2.6734375 2.2790625 0.9375 2.5 C-2.43277201 2.67421478 -2.43277201 2.67421478 -3.625 4.0625 C-3.72409302 6.39410055 -3.75470504 8.72879942 -3.75 11.0625 C-3.75386719 12.980625 -3.75386719 12.980625 -3.7578125 14.9375 C-3.98360893 17.92937244 -3.98360893 17.92937244 -2.625 19.0625 C1.51776875 19.30983137 1.51776875 19.30983137 5.375 18.0625 C5.045 19.0525 4.715 20.0425 4.375 21.0625 C2.395 21.0625 0.415 21.0625 -1.625 21.0625 C-1.625 21.7225 -1.625 22.3825 -1.625 23.0625 C-4.39313126 22.77614159 -5.4562917 22.24325889 -7.375 20.1875 C-9.68121924 14.4219519 -9.18869827 8.39782142 -7.75 2.4375 C-5.81393192 -1.64975484 -3.95912862 -0.96150266 0 0 Z " fill="#74D8DD" transform="translate(666.625,472.9375)"/>
<path d="M0 0 C3.63 0 7.26 0 11 0 C11 0.66 11 1.32 11 2 C8.03 2 5.06 2 2 2 C2 8.6 2 15.2 2 22 C2.66 22 3.32 22 4 22 C4 20.02 4 18.04 4 16 C6.64 15.67 9.28 15.34 12 15 C12.33 12.03 12.66 9.06 13 6 C13.33 6 13.66 6 14 6 C14.08131463 7.43655854 14.13933559 8.8744483 14.1875 10.3125 C14.22230469 11.11300781 14.25710938 11.91351563 14.29296875 12.73828125 C14 15 14 15 12.65625 16.78125 C10.39462293 18.44546615 8.73668179 18.22189312 6 18 C6.020625 18.804375 6.04125 19.60875 6.0625 20.4375 C6 23 6 23 5 24 C3.35 24 1.7 24 0 24 C0 16.08 0 8.16 0 0 Z " fill="#44CFD6" transform="translate(779,472)"/>
<path d="M0 0 C0.66 0 1.32 0 2 0 C2.33 0.99 2.66 1.98 3 3 C3.66 2.01 4.32 1.02 5 0 C6.66666667 5 8.33333333 10 10 15 C7.6875 15.3125 7.6875 15.3125 5 15 C3.18116991 12.6167054 2 11.04181663 2 8 C1.34 8 0.68 8 0 8 C-0.66 10.31 -1.32 12.62 -2 15 C-3.98 15 -5.96 15 -8 15 C-7.25 12.0625 -7.25 12.0625 -6 9 C-3.9375 8.25 -3.9375 8.25 -2 8 C-1.67 7.34 -1.34 6.68 -1 6 C-0.01 6.33 0.98 6.66 2 7 C2 6.01 2 5.02 2 4 C1.34 4 0.68 4 0 4 C0 2.68 0 1.36 0 0 Z " fill="#42CFD6" transform="translate(765,481)"/>
<path d="M0 0 C2.45823172 3.68734758 3.01242616 6.69699971 4 11 C1.69 11 -0.62 11 -3 11 C-3.33 11.66 -3.66 12.32 -4 13 C-1.03 13 1.94 13 5 13 C4.67 13.99 4.34 14.98 4 16 C4 15.34 4 14.68 4 14 C2.02 14 0.04 14 -2 14 C-2.33 15.98 -2.66 17.96 -3 20 C-4.65 20 -6.3 20 -8 20 C-6.92857143 9.82142857 -6.92857143 9.82142857 -5 5 C-2.375 3.5625 -2.375 3.5625 0 3 C0 2.01 0 1.02 0 0 Z M0 6 C0 7.32 0 8.64 0 10 C0.66 9.67 1.32 9.34 2 9 C1.34 8.01 0.68 7.02 0 6 Z " fill="#4FD1D7" transform="translate(472,476)"/>
<path d="M0 0 C2.97 0 5.94 0 9 0 C9 0.33 9 0.66 9 1 C6.36 1 3.72 1 1 1 C1 3.64 1 6.28 1 9 C1.66 8.34 2.32 7.68 3 7 C6.625 6.875 6.625 6.875 10 7 C10 8.65 10 10.3 10 12 C7.69 12 5.38 12 3 12 C3 13.65 3 15.3 3 17 C5.64 17 8.28 17 11 17 C10.34 17.33 9.68 17.66 9 18 C9 18.66 9 19.32 9 20 C6.03 20 3.06 20 0 20 C0 13.4 0 6.8 0 0 Z " fill="#5ED4DA" transform="translate(510,474)"/>
<path d="M0 0 C2.97 0 5.94 0 9 0 C9 0.33 9 0.66 9 1 C6.36 1 3.72 1 1 1 C1 3.64 1 6.28 1 9 C1.66 8.34 2.32 7.68 3 7 C6.125 6.875 6.125 6.875 9 7 C9.33 8.65 9.66 10.3 10 12 C7.69 12 5.38 12 3 12 C3 13.65 3 15.3 3 17 C5.64 17 8.28 17 11 17 C10.34 17.33 9.68 17.66 9 18 C9 18.66 9 19.32 9 20 C6.03 20 3.06 20 0 20 C0 13.4 0 6.8 0 0 Z " fill="#5DD4DA" transform="translate(1068,474)"/>
<path d="M0 0 C2.97 0 5.94 0 9 0 C9 0.33 9 0.66 9 1 C6.36 1 3.72 1 1 1 C1 3.64 1 6.28 1 9 C1.66 8.34 2.32 7.68 3 7 C6.125 6.875 6.125 6.875 9 7 C9.33 8.65 9.66 10.3 10 12 C7.69 12 5.38 12 3 12 C3 13.65 3 15.3 3 17 C5.64 17 8.28 17 11 17 C10.34 17.33 9.68 17.66 9 18 C9 18.66 9 19.32 9 20 C6.03 20 3.06 20 0 20 C0 13.4 0 6.8 0 0 Z " fill="#5DD4DA" transform="translate(710,474)"/>
<path d="M0 0 C0.33 0.99 0.66 1.98 1 3 C-0.55383991 5.14490843 -2.10894606 7.04216386 -3.875 9 C-4.8979906 10.16852271 -5.92011299 11.33780602 -6.94140625 12.5078125 C-7.71508545 13.38614746 -7.71508545 13.38614746 -8.50439453 14.28222656 C-10.66642529 16.76542088 -12.73988845 19.31700762 -14.8125 21.875 C-18.14783497 25.97218306 -21.53998861 30.00767917 -25 34 C-25 30.43269474 -24.28156971 29.66594419 -22.18359375 26.8671875 C-21.58353516 26.06023437 -20.98347656 25.25328125 -20.36523438 24.421875 C-19.41100586 23.16117187 -19.41100586 23.16117187 -18.4375 21.875 C-17.82841797 21.05773437 -17.21933594 20.24046875 -16.59179688 19.3984375 C-14.74062869 16.92237763 -12.87188894 14.46041979 -11 12 C-10.06631592 10.75331543 -10.06631592 10.75331543 -9.11376953 9.48144531 C-8.51032715 8.68577148 -7.90688477 7.89009766 -7.28515625 7.0703125 C-6.74898682 6.35891113 -6.21281738 5.64750977 -5.66040039 4.91455078 C-3.94038884 2.93126442 -2.15130232 1.49312262 0 0 Z " fill="#88E0DF" transform="translate(252,460)"/>
<path d="M0 0 C3.99199058 0.99799764 5.82006579 2.55799862 8 6 C7.34 6.66 6.68 7.32 6 8 C4.125 7.6875 4.125 7.6875 2 7 C1.2575 6.814375 0.515 6.62875 -0.25 6.4375 C-0.8275 6.293125 -1.405 6.14875 -2 6 C0.62481477 8.91646086 3.72853238 10.86643416 7 13 C8 14 8 14 8.0625 16.5625 C8.041875 17.366875 8.02125 18.17125 8 19 C7.34 19.33 6.68 19.66 6 20 C5.67 18.02 5.34 16.04 5 14 C2.03 13.01 -0.94 12.02 -4 11 C-4.07427838 7.65747276 -4.06546953 5.1964086 -3 2 C-2.01 1.34 -1.02 0.68 0 0 Z " fill="#2CCAD2" transform="translate(845,471)"/>
<path d="M0 0 C0.66 0 1.32 0 2 0 C2.66 2.31 3.32 4.62 4 7 C3.67 7 3.34 7 3 7 C2.67 19.21 2.34 31.42 2 44 C1.01 44.495 1.01 44.495 0 45 C0 30.15 0 15.3 0 0 Z " fill="#84DAE0" transform="translate(713,399)"/>
<path d="M0 0 C0.66 0 1.32 0 2 0 C2 14.85 2 29.7 2 45 C-0.52845528 43.73577236 -0.76422764 42.47154472 -2 40 C-1.34 40 -0.68 40 0 40 C0 26.8 0 13.6 0 0 Z " fill="#B1E7EB" transform="translate(1026,399)"/>
<path d="M0 0 C0.66 0 1.32 0 2 0 C2 14.85 2 29.7 2 45 C1.34 44.67 0.68 44.34 0 44 C0 43.34 0 42.68 0 42 C-0.66 41.34 -1.32 40.68 -2 40 C-1.505 39.505 -1.505 39.505 -1 39 C-0.83976438 36.11747355 -0.74045971 33.25621473 -0.68359375 30.37109375 C-0.66281265 29.50686295 -0.64203156 28.64263214 -0.62062073 27.75221252 C-0.55502886 24.98072555 -0.49619582 22.20914079 -0.4375 19.4375 C-0.39432392 17.56314077 -0.35070994 15.68879157 -0.30664062 13.81445312 C-0.19933773 9.20973664 -0.09809785 4.60492142 0 0 Z " fill="#9BE1E5" transform="translate(735,399)"/>
<path d="M0 0 C1.2065625 0.0309375 1.2065625 0.0309375 2.4375 0.0625 C2.1075 0.7225 1.7775 1.3825 1.4375 2.0625 C0.7775 1.7325 0.1175 1.4025 -0.5625 1.0625 C0.46933807 4.15801422 1.63324186 7.1826597 2.81640625 10.22265625 C3.4375 12.0625 3.4375 12.0625 3.4375 14.0625 C1.43795254 14.10504356 -0.56291636 14.10330783 -2.5625 14.0625 C-2.8925 13.7325 -3.2225 13.4025 -3.5625 13.0625 C-4.2225 16.0325 -4.8825 19.0025 -5.5625 22.0625 C-6.2225 22.0625 -6.8825 22.0625 -7.5625 22.0625 C-5.73561609 0.13989308 -5.73561609 0.13989308 0 0 Z M-0.5625 10.0625 C-0.5625 11.0525 -0.5625 12.0425 -0.5625 13.0625 C0.0975 12.7325 0.7575 12.4025 1.4375 12.0625 C0.7775 11.4025 0.1175 10.7425 -0.5625 10.0625 Z " fill="#25C9D1" transform="translate(1032.5625,472.9375)"/>
<path d="M0 0 C1.98 0 3.96 0 6 0 C7.39171419 5.47987463 8.11763175 10.35367593 8 16 C8.33 16.33 8.66 16.66 9 17 C9.66 16.01 10.32 15.02 11 14 C10.67 16.31 10.34 18.62 10 21 C8.35 21.33 6.7 21.66 5 22 C4.34 19.69 3.68 17.38 3 15 C3.66 15 4.32 15 5 15 C4.67 13.68 4.34 12.36 4 11 C3.34 12.65 2.68 14.3 2 16 C0.67634374 12.02903122 1.75681748 9.93674465 3 6 C3.185625 5.21625 3.37125 4.4325 3.5625 3.625 C4 2 4 2 5 1 C3.68 1 2.36 1 1 1 C0.67 1.66 0.34 2.32 0 3 C0 2.01 0 1.02 0 0 Z " fill="#69D5DC" transform="translate(919,472)"/>
<path d="M0 0 C0.33 0.99 0.66 1.98 1 3 C1.66 3.33 2.32 3.66 3 4 C2.67 4.66 2.34 5.32 2 6 C1.01 6.33 0.02 6.66 -1 7 C-2.21693876 9.43387753 -2.31959896 11.41838846 -2.5625 14.125 C-2.64628906 15.03507812 -2.73007812 15.94515625 -2.81640625 16.8828125 C-2.87699219 17.58148438 -2.93757812 18.28015625 -3 19 C-3.66 18.67 -4.32 18.34 -5 18 C-5.66 18.66 -6.32 19.32 -7 20 C-7 14.39 -7 8.78 -7 3 C-4.69 2.01 -2.38 1.02 0 0 Z " fill="#22C8D0" transform="translate(566,471)"/>
<path d="M0 0 C3.63 0 7.26 0 11 0 C11 0.66 11 1.32 11 2 C8.03 2 5.06 2 2 2 C2.33 8.27 2.66 14.54 3 21 C3.33 19.35 3.66 17.7 4 16 C4.99 16.33 5.98 16.66 7 17 C6.34 17 5.68 17 5 17 C5 19.31 5 21.62 5 24 C3.35 24 1.7 24 0 24 C0 16.08 0 8.16 0 0 Z " fill="#41CED5" transform="translate(603,472)"/>
<path d="M0 0 C0.99 0 1.98 0 3 0 C5.19613633 4.39227266 4.46337435 10.41128796 3.125 15 C2 17 2 17 0 19 C-3.625 19.125 -3.625 19.125 -7 19 C-7 18.34 -7 17.68 -7 17 C-5.02 16.67 -3.04 16.34 -1 16 C-0.67 10.72 -0.34 5.44 0 0 Z " fill="#4FD2D9" transform="translate(672,477)"/>
<path d="M0 0 C2.31 0 4.62 0 7 0 C7.66 2.97 8.32 5.94 9 9 C8.01 9.33 7.02 9.66 6 10 C5.34 8.02 4.68 6.04 4 4 C3.67 9.94 3.34 15.88 3 22 C2.67 22 2.34 22 2 22 C2 15.4 2 8.8 2 2 C3.32 1.67 4.64 1.34 6 1 C4.35 1 2.7 1 1 1 C1 8.59 1 16.18 1 24 C0.67 24 0.34 24 0 24 C0 16.08 0 8.16 0 0 Z " fill="#95E0E5" transform="translate(397,472)"/>
<path d="M0 0 C2 1.3125 2 1.3125 3 3 C3 3.99 3 4.98 3 6 C1.02 6.99 1.02 6.99 -1 8 C-2.98 6.68 -4.96 5.36 -7 4 C-8.01111093 7.04913228 -8.01111093 7.04913228 -7 10 C-10 9 -10 9 -12 6 C-11.8125 3.9375 -11.8125 3.9375 -11 2 C-7.20675288 -0.52883142 -4.45092058 -0.61200158 0 0 Z " fill="#50D1D8" transform="translate(888,472)"/>
<path d="M0 0 C1.485 0.99 1.485 0.99 3 2 C3.51171875 4.6015625 3.51171875 4.6015625 3.6875 7.625 C3.75324219 8.62789063 3.81898438 9.63078125 3.88671875 10.6640625 C3.92410156 11.43492187 3.96148438 12.20578125 4 13 C4.66 12.34 5.32 11.68 6 11 C6 12.32 6 13.64 6 15 C8.31 15.33 10.62 15.66 13 16 C12.67 16.66 12.34 17.32 12 18 C10.02 18 8.04 18 6 18 C6 18.66 6 19.32 6 20 C1.125 18.25 1.125 18.25 0 16 C-0.07181821 13.28239892 -0.09299506 10.59140612 -0.0625 7.875 C-0.05798828 7.12089844 -0.05347656 6.36679687 -0.04882812 5.58984375 C-0.03703499 3.72652873 -0.01909942 1.86325445 0 0 Z " fill="#60D4DA" transform="translate(558,476)"/>
<path d="M0 0 C1.65 0 3.3 0 5 0 C5.50559908 1.43554025 6.0042749 2.8735202 6.5 4.3125 C6.7784375 5.11300781 7.056875 5.91351563 7.34375 6.73828125 C8 9 8 9 8 12 C7.360625 12.12375 6.72125 12.2475 6.0625 12.375 C5.381875 12.58125 4.70125 12.7875 4 13 C3.67 13.66 3.34 14.32 3 15 C2.49564306 13.0636296 1.99666126 11.12585854 1.5 9.1875 C1.2215625 8.10855469 0.943125 7.02960938 0.65625 5.91796875 C0 3 0 3 0 0 Z " fill="#6AD6DC" transform="translate(909,472)"/>
<path d="M0 0 C0.33 0.66 0.66 1.32 1 2 C1 1.34 1 0.68 1 0 C1.99 0.33 2.98 0.66 4 1 C4.33 2.98 4.66 4.96 5 7 C3.02 7 1.04 7 -1 7 C-1.33 5.68 -1.66 4.36 -2 3 C-3.65 2.67 -5.3 2.34 -7 2 C-7.33 3.65 -7.66 5.3 -8 7 C-9.65 7 -11.3 7 -13 7 C-12.67 6.01 -12.34 5.02 -12 4 C-11.67 4.33 -11.34 4.66 -11 5 C-10.87625 4.360625 -10.7525 3.72125 -10.625 3.0625 C-10.41875 2.381875 -10.2125 1.70125 -10 1 C-6.78548731 -0.60725635 -3.56387464 -0.05748185 0 0 Z " fill="#2DCBD2" transform="translate(1037,489)"/>
<path d="M0 0 C0.66 0 1.32 0 2 0 C2 2.97 2 5.94 2 9 C4.97 9 7.94 9 11 9 C11 6.03 11 3.06 11 0 C11.33 0 11.66 0 12 0 C12 6.27 12 12.54 12 19 C11.67 19 11.34 19 11 19 C11 16.03 11 13.06 11 10 C8.03 10 5.06 10 2 10 C2 13.3 2 16.6 2 20 C1.34 20 0.68 20 0 20 C0 13.4 0 6.8 0 0 Z " fill="#6DD4DA" transform="translate(973,474)"/>
<path d="M0 0 C1.98 0 3.96 0 6 0 C8 2 8 2 8.3125 5.4375 C8 9 8 9 6.8125 10.9375 C5 12 5 12 0 12 C0 8.04 0 4.08 0 0 Z M2 2 C2 4.31 2 6.62 2 9 C2.99 9 3.98 9 5 9 C5.33 7.35 5.66 5.7 6 4 C4.68 3.34 3.36 2.68 2 2 Z " fill="#2ECBD3" transform="translate(783,475)"/>
<path d="M0 0 C0.66 0 1.32 0 2 0 C2.66 0.66 3.32 1.32 4 2 C4.66 1.67 5.32 1.34 6 1 C6 5.62 6 10.24 6 15 C4.35 15 2.7 15 1 15 C0.67 10.05 0.34 5.1 0 0 Z " fill="#20C7CF" transform="translate(543,481)"/>
<path d="M0 0 C2.97 0 5.94 0 9 0 C9 0.33 9 0.66 9 1 C6.69 1 4.38 1 2 1 C2 3.64 2 6.28 2 9 C3.98 9 5.96 9 8 9 C8 9.33 8 9.66 8 10 C6.02 10 4.04 10 2 10 C2 12.97 2 15.94 2 19 C4.64 19 7.28 19 10 19 C10 19.33 10 19.66 10 20 C6.7 20 3.4 20 0 20 C0 13.4 0 6.8 0 0 Z " fill="#79D7DD" transform="translate(800,474)"/>
<path d="M0 0 C0.99 0 1.98 0 3 0 C3.81436587 2.41605225 4.62655397 4.83279998 5.4375 7.25 C5.66759766 7.93191406 5.89769531 8.61382812 6.13476562 9.31640625 C7.20803714 12.52066613 8.26015608 15.70046619 9 19 C8.34 19 7.68 19 7 19 C5.25372522 16.38058783 4.61277612 14.96175123 4 12 C3.34 12 2.68 12 2 12 C2 11.01 2 10.02 2 9 C2.66 9 3.32 9 4 9 C3.34 7.35 2.68 5.7 2 4 C1.67 9.28 1.34 14.56 1 20 C0.67 20 0.34 20 0 20 C0 13.4 0 6.8 0 0 Z " fill="#84DBE0" transform="translate(684,474)"/>
<path d="M0 0 C2 3 2 3 1.625 5.1875 C1.41875 5.785625 1.2125 6.38375 1 7 C1 6.34 1 5.68 1 5 C0.34 5 -0.32 5 -1 5 C-1.144375 6.11375 -1.28875 7.2275 -1.4375 8.375 C-2 12 -2 12 -3 14 C-4.65 14 -6.3 14 -8 14 C-9.42258812 10.17679443 -10.24042276 7.08718695 -10 3 C-9.34 3 -8.68 3 -8 3 C-7.01 5.64 -6.02 8.28 -5 11 C-3.35 7.37 -1.7 3.74 0 0 Z " fill="#1CC7CF" transform="translate(923,482)"/>
<path d="M0 0 C0.66 0.66 1.32 1.32 2 2 C2.66 1.34 3.32 0.68 4 0 C4.66 0.99 5.32 1.98 6 3 C7.68704236 4.13464018 7.68704236 4.13464018 9.5625 5.0625 C13 7 13 7 14 9 C14.039992 10.99960012 14.04346799 13.00047242 14 15 C10 11 10 11 8.625 9.4375 C6.90477859 7.76860988 6.90477859 7.76860988 3.875 6.625 C1 5 1 5 0.125 2.3125 C0.08375 1.549375 0.0425 0.78625 0 0 Z " fill="#55D2D9" transform="translate(1047,477)"/>
<path d="M0 0 C0.66 0.33 1.32 0.66 2 1 C2 1.66 2 2.32 2 3 C3.03119607 4.24651015 3.03119607 4.24651015 5.25 4.1875 C8.20562064 3.98598041 10.32037079 3.22497335 13 2 C12.375 4.375 12.375 4.375 11 7 C7.73081106 8.67091879 5.90924274 9.2114518 2.3125 8.375 C-0.19924393 6.88153064 -1.44716572 5.4518436 -3 3 C-2.01 2.01 -1.02 1.02 0 0 Z " fill="#45D0D7" transform="translate(840,488)"/>
<path d="M0 0 C0.33 0.66 0.66 1.32 1 2 C2.98 1.67 4.96 1.34 7 1 C7 5 7 5 5.9375 6.8125 C2.83950984 8.71126816 0.41195881 7.80646299 -3 7 C-3.66 6.34 -4.32 5.68 -5 5 C-5 4.01 -5 3.02 -5 2 C-2 0 -2 0 0 0 Z " fill="#2FCAD2" transform="translate(881,488)"/>
<path d="M0 0 C0.66 0 1.32 0 2 0 C2.66 1.98 3.32 3.96 4 6 C4.66 5.34 5.32 4.68 6 4 C6.33 6.31 6.66 8.62 7 11 C6.34 11 5.68 11 5 11 C5.33 12.65 5.66 14.3 6 16 C5.67 15.34 5.34 14.68 5 14 C3.72125 14.103125 2.4425 14.20625 1.125 14.3125 C0.40570313 14.37050781 -0.31359375 14.42851562 -1.0546875 14.48828125 C-3.39519216 14.87393036 -3.39519216 14.87393036 -5 18 C-4.67 15.69 -4.34 13.38 -4 11 C-1.36 11.33 1.28 11.66 4 12 C2.68 8.04 1.36 4.08 0 0 Z " fill="#72D6DD" transform="translate(430,475)"/>
<path d="M0 0 C2.97 0 5.94 0 9 0 C8.91266424 1.60517097 8.80447776 3.20921662 8.6875 4.8125 C8.62949219 5.70582031 8.57148438 6.59914063 8.51171875 7.51953125 C7.92555 10.36088358 7.35769967 11.34087801 5 13 C1.3125 13.1875 1.3125 13.1875 -2 13 C-2 12.34 -2 11.68 -2 11 C-0.02 10.67 1.96 10.34 4 10 C4.66 7.03 5.32 4.06 6 1 C4.35 1 2.7 1 1 1 C0.67 1.66 0.34 2.32 0 3 C0 2.01 0 1.02 0 0 Z " fill="#28CAD2" transform="translate(494,483)"/>
<path d="M0 0 C0.33 0 0.66 0 1 0 C1 7.26 1 14.52 1 22 C0.01 22 -0.98 22 -2 22 C-2.33 18.37 -2.66 14.74 -3 11 C-3.99 11.495 -3.99 11.495 -5 12 C-4.54965877 10.37276701 -4.08944646 8.74826336 -3.625 7.125 C-3.36976563 6.22007812 -3.11453125 5.31515625 -2.8515625 4.3828125 C-2 2 -2 2 0 0 Z " fill="#00C2CB" transform="translate(416,473)"/>
<path d="M0 0 C1.32 0.33 2.64 0.66 4 1 C3.01 1 2.02 1 1 1 C1.66 1.33 2.32 1.66 3 2 C3.6328125 3.84765625 3.6328125 3.84765625 4.125 6.0625 C4.29257812 6.79597656 4.46015625 7.52945312 4.6328125 8.28515625 C4.75398437 8.85105469 4.87515625 9.41695313 5 10 C4.34 10 3.68 10 3 10 C3 13.96 3 17.92 3 22 C2.01 22 1.02 22 0 22 C0 14.74 0 7.48 0 0 Z " fill="#00C2CB" transform="translate(683,473)"/>
<path d="M0 0 C0.99 0.33 1.98 0.66 3 1 C2.34 1 1.68 1 1 1 C1 2.32 1 3.64 1 5 C1.928125 5.268125 2.85625 5.53625 3.8125 5.8125 C8.33043478 7.49565217 8.33043478 7.49565217 10 10 C10.1875 12.6875 10.1875 12.6875 10 15 C8 14 8 14 7.25 12.0625 C5.45661244 9.10341053 3.21801895 9.00563092 0 8 C-2 5 -2 5 -1.6875 2.875 C-1 1 -1 1 0 0 Z " fill="#27C9D1" transform="translate(881,475)"/>
<path d="M0 0 C1.74627478 2.61941217 2.38722388 4.03824877 3 7 C3.99 4.69 4.98 2.38 6 0 C7.60080151 4.00200378 6.29279692 7.04556236 5 11 C3.35 11 1.7 11 0 11 C-1.125 3.375 -1.125 3.375 0 0 Z " fill="#41CED5" transform="translate(405,485)"/>
<path d="M0 0 C0.33 0 0.66 0 1 0 C0.59060025 6.76215448 -0.56953809 12.67162748 -3 19 C-4.65 19 -6.3 19 -8 19 C-8 18.01 -8 17.02 -8 16 C-7.01 16 -6.02 16 -5 16 C-3.35 10.72 -1.7 5.44 0 0 Z " fill="#2DCAD2" transform="translate(933,477)"/>
<path d="M0 0 C0.33 0 0.66 0 1 0 C1.09767435 5.49146893 0.90430681 10.57415916 0 16 C0.3577614 18.27650745 0.3577614 18.27650745 1 20 C-0.98 20 -2.96 20 -5 20 C-5 19.01 -5 18.02 -5 17 C-4.34 16.67 -3.68 16.34 -3 16 C-3.33 14.35 -3.66 12.7 -4 11 C-3.01 10.34 -2.02 9.68 -1 9 C-0.42006301 6.80545319 -0.42006301 6.80545319 -0.3125 4.375 C-0.24675781 3.55773437 -0.18101562 2.74046875 -0.11328125 1.8984375 C-0.07589844 1.27195312 -0.03851562 0.64546875 0 0 Z " fill="#61D6DC" transform="translate(617,476)"/>
<path d="M0 0 C2.672336 3.56311466 3.77263971 5.84585747 5 10 C4.34 10 3.68 10 3 10 C2.67 12.64 2.34 15.28 2 18 C0.68 17.67 -0.64 17.34 -2 17 C-1.34 17 -0.68 17 0 17 C0 11.39 0 5.78 0 0 Z " fill="#02C2CB" transform="translate(820,477)"/>
<path d="M0 0 C1.65 0.33 3.3 0.66 5 1 C4.125 7.75 4.125 7.75 3 10 C1.68 10 0.36 10 -1 10 C-2.4783226 7.04335481 -2.06032783 4.25770263 -2 1 C0 4 0 4 0 7 C0.66 7 1.32 7 2 7 C1.67 6.401875 1.34 5.80375 1 5.1875 C0 3 0 3 0 0 Z " fill="#2ECBD2" transform="translate(691,486)"/>
<path d="M0 0 C2.02350324 3.03525486 2.32124018 4.19426202 2.625 7.6875 C2.69976562 8.49574219 2.77453125 9.30398438 2.8515625 10.13671875 C2.92503906 11.05904297 2.92503906 11.05904297 3 12 C1.35 12 -0.3 12 -2 12 C-2.33 10.35 -2.66 8.7 -3 7 C-4.65 7 -6.3 7 -8 7 C-8 6.67 -8 6.34 -8 6 C-6.02 6 -4.04 6 -2 6 C-2 6.66 -2 7.32 -2 8 C-1.34 8 -0.68 8 0 8 C-0.185625 7.236875 -0.37125 6.47375 -0.5625 5.6875 C-1 3 -1 3 0 0 Z " fill="#50D1D8" transform="translate(478,484)"/>
<path d="M0 0 C3.54929577 4.73239437 3.54929577 4.73239437 4 8 C3.67 8.33 3.34 8.66 3 9 C2.76807135 10.51469448 2.58784762 12.03754562 2.4375 13.5625 C2.35371094 14.38878906 2.26992188 15.21507812 2.18359375 16.06640625 C2.12300781 16.70449219 2.06242187 17.34257812 2 18 C0.68 17.67 -0.64 17.34 -2 17 C-1.34 17 -0.68 17 0 17 C0 11.39 0 5.78 0 0 Z " fill="#07C3CC" transform="translate(447,477)"/>
<path d="M0 0 C0.33 0 0.66 0 1 0 C1.33 5.61 1.66 11.22 2 17 C4.31 17.66 6.62 18.32 9 19 C9 19.33 9 19.66 9 20 C7.35 20 5.7 20 4 20 C4 20.66 4 21.32 4 22 C2.125 21.75 2.125 21.75 0 21 C-1.25 18.9375 -1.25 18.9375 -2 17 C-1.67 17 -1.34 17 -1 17 C-0.67 11.39 -0.34 5.78 0 0 Z " fill="#78D9DE" transform="translate(583,474)"/>
<path d="M0 0 C0.66666667 2.66666667 1.33333333 5.33333333 2 8 C2.66 7.01 3.32 6.02 4 5 C3.67 7.31 3.34 9.62 3 12 C1.35 12.33 -0.3 12.66 -2 13 C-2.66 10.69 -3.32 8.38 -4 6 C-3.34 6 -2.68 6 -2 6 C-2 4.35 -2 2.7 -2 1 C-1.34 0.67 -0.68 0.34 0 0 Z " fill="#76D8DE" transform="translate(926,481)"/>
<path d="M0 0 C0.33 0 0.66 0 1 0 C1 5.28 1 10.56 1 16 C0.01 15.34 -0.98 14.68 -2 14 C-2.36328125 11.50390625 -2.36328125 11.50390625 -2.3125 8.5625 C-2.30863281 7.59441406 -2.30476562 6.62632812 -2.30078125 5.62890625 C-2 3 -2 3 0 0 Z " fill="#37CED5" transform="translate(660,476)"/>
<path d="M0 0 C1.98 0 3.96 0 6 0 C6.33 1.98 6.66 3.96 7 6 C6.34 6 5.68 6 5 6 C5.350625 6.9075 5.70125 7.815 6.0625 8.75 C7 12 7 12 6 16 C5.01 12.7 4.02 9.4 3 6 C2.34 6.66 1.68 7.32 1 8 C1.33 6.02 1.66 4.04 2 2 C2.99 1.67 3.98 1.34 5 1 C3.35 1 1.7 1 0 1 C0 0.67 0 0.34 0 0 Z " fill="#71D7DD" transform="translate(1030,472)"/>
<path d="M0 0 C2.97 0 5.94 0 9 0 C9 0.33 9 0.66 9 1 C6.36 1 3.72 1 1 1 C2.06645115 2.29633621 2.06645115 2.29633621 4.5625 2.0625 C5.366875 2.041875 6.17125 2.02125 7 2 C7 4.31 7 6.62 7 9 C6.01 8.34 5.02 7.68 4 7 C2.67432801 6.31822584 1.34246312 5.64808564 0 5 C0 3.35 0 1.7 0 0 Z " fill="#7EDBE0" transform="translate(493,482)"/>
<path d="M0 0 C0.33 1.32 0.66 2.64 1 4 C2.98 4 4.96 4 7 4 C7 5.65 7 7.3 7 9 C5.02 9 3.04 9 1 9 C1 10.65 1 12.3 1 14 C0.34 14 -0.32 14 -1 14 C-1 11.69 -1 9.38 -1 7 C1.31 7 3.62 7 6 7 C6 6.34 6 5.68 6 5 C4.02 5 2.04 5 0 5 C0 3.35 0 1.7 0 0 Z " fill="#31CAD2" transform="translate(1011,477)"/>
<path d="M0 0 C1.9375 0.8125 1.9375 0.8125 4 2 C4.33 2.99 4.66 3.98 5 5 C5.66 4.01 6.32 3.02 7 2 C6.38461538 8.52307692 6.38461538 8.52307692 4.4375 10.9375 C3.963125 11.288125 3.48875 11.63875 3 12 C0.49642139 11.1654738 -1.66785852 10.20628008 -4 9 C-1.69 9 0.62 9 3 9 C1.78955868 4.39257135 1.78955868 4.39257135 0 0 Z " fill="#6CD6DC" transform="translate(885,484)"/>
<path d="M0 0 C2.97 0 5.94 0 9 0 C8.67 0.99 8.34 1.98 8 3 C8 2.34 8 1.68 8 1 C6.02 1 4.04 1 2 1 C1.67 2.98 1.34 4.96 1 7 C-0.65 7 -2.3 7 -4 7 C-3.625 4.5625 -3.625 4.5625 -3 2 C-2.34 1.67 -1.68 1.34 -1 1 C-1 1.99 -1 2.98 -1 4 C-0.67 2.68 -0.34 1.36 0 0 Z " fill="#28C9D1" transform="translate(468,489)"/>
<path d="M0 0 C1.98 0 3.96 0 6 0 C6.625 1.8125 6.625 1.8125 7 4 C5 7 5 7 3 8 C0 2.25 0 2.25 0 0 Z " fill="#60D4DB" transform="translate(758,472)"/>
<path d="M0 0 C0.94875 0.04125 1.8975 0.0825 2.875 0.125 C3.535 1.445 4.195 2.765 4.875 4.125 C3.740625 3.939375 2.60625 3.75375 1.4375 3.5625 C0.261875 3.418125 -0.91375 3.27375 -2.125 3.125 C-3.78842837 4.78842837 -3.48548097 6.9075709 -3.6875 9.1875 C-3.77128906 10.10660156 -3.85507812 11.02570313 -3.94140625 11.97265625 C-4.00199219 12.68292969 -4.06257813 13.39320313 -4.125 14.125 C-4.455 14.125 -4.785 14.125 -5.125 14.125 C-5.17889087 12.16696493 -5.21774217 10.20851091 -5.25 8.25 C-5.27320313 7.15945313 -5.29640625 6.06890625 -5.3203125 4.9453125 C-5.03442851 0.8171477 -4.09749475 0.16389979 0 0 Z " fill="#15C5CE" transform="translate(494.125,474.875)"/>
<path d="M0 0 C2.45823172 3.68734758 3.01242616 6.69699971 4 11 C1.69 11 -0.62 11 -3 11 C-2.01 7.37 -1.02 3.74 0 0 Z M0 6 C0 7.32 0 8.64 0 10 C0.66 9.67 1.32 9.34 2 9 C1.34 8.01 0.68 7.02 0 6 Z " fill="#19C6CF" transform="translate(472,476)"/>
<path d="M0 0 C1.9375 0.75 1.9375 0.75 4 2 C4.75 4.125 4.75 4.125 5 6 C2.75 6.6875 2.75 6.6875 0 7 C-2.3125 5.5625 -2.3125 5.5625 -4 4 C-2.68 3.34 -1.36 2.68 0 2 C0 1.34 0 0.68 0 0 Z " fill="#4BD1D7" transform="translate(1055,472)"/>
<path d="M0 0 C0.33 0.66 0.66 1.32 1 2 C0.0625 4.625 0.0625 4.625 -1 7 C-1.66 6.67 -2.32 6.34 -3 6 C-3.33 9.63 -3.66 13.26 -4 17 C-4.33 17 -4.66 17 -5 17 C-5.27573092 14.89905026 -5.51978976 12.79392365 -5.75 10.6875 C-5.88921875 9.51574219 -6.0284375 8.34398437 -6.171875 7.13671875 C-6 4 -6 4 -4.140625 2.14453125 C-2.76990984 1.41164887 -1.39024505 0.69512253 0 0 Z " fill="#6FD8DD" transform="translate(551,477)"/>
<path d="M0 0 C0.66 0 1.32 0 2 0 C2.33 0.99 2.66 1.98 3 3 C3.66 2.01 4.32 1.02 5 0 C5.54372951 3.05847848 6 5.88772805 6 9 C6.3062434 10.33981486 6.63451555 11.67511887 7 13 C3.9083091 10.47043472 3.09068668 7.77545388 2 4 C1.34 4 0.68 4 0 4 C0 2.68 0 1.36 0 0 Z " fill="#77D8DE" transform="translate(765,481)"/>
<path d="M0 0 C0.66 0.33 1.32 0.66 2 1 C1.67 6.28 1.34 11.56 1 17 C-1.40785992 13.7895201 -2.68197635 11.64991166 -4 8 C-3.34 8 -2.68 8 -2 8 C-2 8.66 -2 9.32 -2 10 C-1.34 10 -0.68 10 0 10 C0 6.7 0 3.4 0 0 Z " fill="#00C2CB" transform="translate(828,473)"/>
<path d="M0 0 C0.66 0.33 1.32 0.66 2 1 C1.24203125 1.70576172 1.24203125 1.70576172 0.46875 2.42578125 C-0.1809375 3.04839844 -0.830625 3.67101562 -1.5 4.3125 C-2.47453125 5.23482422 -2.47453125 5.23482422 -3.46875 6.17578125 C-5.3214614 7.98601529 -5.3214614 7.98601529 -5 11 C-6.98 11 -8.96 11 -11 11 C-7.33333333 7.33333333 -3.66666667 3.66666667 0 0 Z " fill="#95E3E2" transform="translate(307,362)"/>
<path d="M0 0 C2.97 0 5.94 0 9 0 C8.67 0.66 8.34 1.32 8 2 C6.35 1.67 4.7 1.34 3 1 C2.67 2.65 2.34 4.3 2 6 C0.35 6 -1.3 6 -3 6 C-2.67 5.01 -2.34 4.02 -2 3 C-1.67 3.33 -1.34 3.66 -1 4 C-0.67 2.68 -0.34 1.36 0 0 Z " fill="#68D5DB" transform="translate(1027,490)"/>
<path d="M0 0 C0.66 0.33 1.32 0.66 2 1 C1.67 6.28 1.34 11.56 1 17 C-1.40785992 13.7895201 -2.68197635 11.64991166 -4 8 C-3.34 8 -2.68 8 -2 8 C-1.67 8.66 -1.34 9.32 -1 10 C-0.67 6.7 -0.34 3.4 0 0 Z " fill="#00C2CB" transform="translate(455,473)"/>
<path d="M0 0 C0.33 0.99 0.66 1.98 1 3 C-0.0625 4.5 -0.0625 4.5 -2 6 C-5.6875 6.1875 -5.6875 6.1875 -9 6 C-9 5.34 -9 4.68 -9 4 C-7.35 4 -5.7 4 -4 4 C-3.67 3.01 -3.34 2.02 -3 1 C-2.01 0.67 -1.02 0.34 0 0 Z " fill="#35CCD3" transform="translate(596,490)"/>
<path d="M0 0 C0.33 0 0.66 0 1 0 C1.1081866 2.58445773 1.18737237 5.16437352 1.25 7.75 C1.28351562 8.47960937 1.31703125 9.20921875 1.3515625 9.9609375 C1.41902625 13.67144375 1.34327652 15.57156961 -1.015625 18.515625 C-1.67046875 19.00546875 -2.3253125 19.4953125 -3 20 C-3.99 19.67 -4.98 19.34 -6 19 C-5.19175781 18.49984375 -4.38351562 17.9996875 -3.55078125 17.484375 C-0.70648831 14.7141295 -0.3756508 13.2206252 -0.20507812 9.31640625 C-0.19927734 8.63449219 -0.19347656 7.95257813 -0.1875 7.25 C-0.16236328 6.55261719 -0.13722656 5.85523438 -0.11132812 5.13671875 C-0.05271038 3.42508051 -0.02342947 1.7124814 0 0 Z " fill="#5ED3D9" transform="translate(574,476)"/>
<path d="M0 0 C1.32 0.66 2.64 1.32 4 2 C3.67 2.99 3.34 3.98 3 5 C4.65 5 6.3 5 8 5 C8 5.33 8 5.66 8 6 C5.125 6.125 5.125 6.125 2 6 C1.34 5.34 0.68 4.68 0 4 C-0.66 4.66 -1.32 5.32 -2 6 C-2.33 5.01 -2.66 4.02 -3 3 C-2.01 2.01 -1.02 1.02 0 0 Z " fill="#6AD7DD" transform="translate(1048,488)"/>
<path d="M0 0 C1.65 0 3.3 0 5 0 C5 1.65 5 3.3 5 5 C4.34 4.67 3.68 4.34 3 4 C3.33 5.98 3.66 7.96 4 10 C1.2027092 7.93243723 0.97307727 6.85559629 0.3125 3.3125 C0.209375 2.219375 0.10625 1.12625 0 0 Z " fill="#31CBD3" transform="translate(909,472)"/>
<path d="M0 0 C0.33 1.32 0.66 2.64 1 4 C-0.65 4 -2.3 4 -4 4 C-4 5.65 -4 7.3 -4 9 C-4.66 9 -5.32 9 -6 9 C-6 6.69 -6 4.38 -6 2 C-4.02 2 -2.04 2 0 2 C0 1.34 0 0.68 0 0 Z " fill="#1EC7D0" transform="translate(808,482)"/>
<path d="M0 0 C1.53690745 2.41040161 2.09752136 3.50082285 1.5390625 6.359375 C1.23742187 7.14828125 0.93578125 7.9371875 0.625 8.75 C0.32851563 9.54921875 0.03203125 10.3484375 -0.2734375 11.171875 C-0.51320313 11.77515625 -0.75296875 12.3784375 -1 13 C-3 10 -3 10 -3 7 C-2.34 7 -1.68 7 -1 7 C-0.67 4.69 -0.34 2.38 0 0 Z " fill="#27C9D1" transform="translate(929,478)"/>
<path d="M0 0 C1.22589844 0.29197266 1.22589844 0.29197266 2.4765625 0.58984375 C3.41628906 0.82380859 3.41628906 0.82380859 4.375 1.0625 C4.375 1.3925 4.375 1.7225 4.375 2.0625 C2.7971875 2.2790625 2.7971875 2.2790625 1.1875 2.5 C-1.77960549 2.93776966 -4.69294366 3.44054866 -7.625 4.0625 C-7.25 2.125 -7.25 2.125 -6.625 0.0625 C-3.99249612 -1.25375194 -2.82320944 -0.68563658 0 0 Z " fill="#5BD2D9" transform="translate(666.625,472.9375)"/>
<path d="M0 0 C1 3 1 3 0 6 C-1.98 6 -3.96 6 -6 6 C-3.375 1.125 -3.375 1.125 0 0 Z " fill="#39CDD4" transform="translate(763,490)"/>
<path d="M0 0 C0.66 0 1.32 0 2 0 C1.125 3.875 1.125 3.875 0 5 C-2.375 5.25 -2.375 5.25 -5 5 C-6.8125 3.5 -6.8125 3.5 -8 2 C-4.88742431 2 -2.89234315 2.17361624 0 3 C0 2.01 0 1.02 0 0 Z " fill="#11C5CD" transform="translate(848,488)"/>
<path d="M0 0 C1.2065625 0.0309375 1.2065625 0.0309375 2.4375 0.0625 C2.1075 0.7225 1.7775 1.3825 1.4375 2.0625 C0.7775 1.7325 0.1175 1.4025 -0.5625 1.0625 C-0.8925 3.3725 -1.2225 5.6825 -1.5625 8.0625 C-2.5525 8.0625 -3.5425 8.0625 -4.5625 8.0625 C-3.54737544 0.08652135 -3.54737544 0.08652135 0 0 Z " fill="#2DCBD2" transform="translate(1032.5625,472.9375)"/>
<path d="M0 0 C0.33 0.66 0.66 1.32 1 2 C0.01 3.32 -0.98 4.64 -2 6 C-5 5 -5 5 -9 3 C-6.03 2.01 -3.06 1.02 0 0 Z " fill="#64D5DB" transform="translate(852,490)"/>
<path d="M0 0 C0.66 0 1.32 0 2 0 C0.125 3.875 0.125 3.875 -1 5 C-3.33297433 5.04092937 -5.66705225 5.04241723 -8 5 C-8 4.34 -8 3.68 -8 3 C-6.865625 2.690625 -5.73125 2.38125 -4.5625 2.0625 C-1.21224901 1.37075469 -1.21224901 1.37075469 0 0 Z " fill="#21C8D0" transform="translate(673,491)"/>
<path d="M0 0 C0.99 0.33 1.98 0.66 3 1 C0.03 4.3 -2.94 7.6 -6 11 C-6 7.39426104 -5.18292538 6.58663434 -3 3.8125 C-2.443125 3.09707031 -1.88625 2.38164062 -1.3125 1.64453125 C-0.879375 1.10183594 -0.44625 0.55914062 0 0 Z " fill="#A5E7E6" transform="translate(233,483)"/>
<path d="M0 0 C2.50357861 0.8345262 4.66785852 1.79371992 7 3 C5.02 3.33 3.04 3.66 1 4 C0.67 5.65 0.34 7.3 0 9 C-2 6 -2 6 -1.6875 3.375 C-1 1 -1 1 0 0 Z " fill="#6DD5DC" transform="translate(841,472)"/>
<path d="M0 0 C3 1 3 1 4 3 C4.06996014 4.70702735 4.08440154 6.41668003 4.0625 8.125 C4.05347656 9.03507812 4.04445313 9.94515625 4.03515625 10.8828125 C4.02355469 11.58148438 4.01195312 12.28015625 4 13 C3.67 13 3.34 13 3 13 C3 10.36 3 7.72 3 5 C2.01 4.67 1.02 4.34 0 4 C0 2.68 0 1.36 0 0 Z " fill="#65D6DC" transform="translate(790,473)"/>
<path d="M0 0 C2.4375 0.8125 2.4375 0.8125 5 2 C5.33 2.99 5.66 3.98 6 5 C4.35 5.33 2.7 5.66 1 6 C0 1.125 0 1.125 0 0 Z " fill="#62D5DC" transform="translate(497,475)"/>
<path d="M0 0 C1.32 0 2.64 0 4 0 C3.43628586 3.26954202 2.50037734 4.82575883 0 7 C-0.93423645 3.98968256 -1.04449911 3.13349732 0 0 Z " fill="#40CFD6" transform="translate(695,475)"/>
<path d="M0 0 C1.32 0.33 2.64 0.66 4 1 C4.66 3.31 5.32 5.62 6 8 C2.24623848 6.74874616 1.75926711 5.4347596 0 2 C0 1.34 0 0.68 0 0 Z " fill="#2ECBD3" transform="translate(447,473)"/>
<path d="M0 0 C0.99 0.33 1.98 0.66 3 1 C3.6875 3.0625 3.6875 3.0625 4 5 C2.02 5 0.04 5 -2 5 C-2 4.01 -2 3.02 -2 2 C-1.34 1.67 -0.68 1.34 0 1 C0 0.67 0 0.34 0 0 Z " fill="#44CFD6" transform="translate(614,491)"/>
<path d="M0 0 C0.99 0.33 1.98 0.66 3 1 C3 4.63 3 8.26 3 12 C2.67 12 2.34 12 2 12 C1.855625 10.948125 1.71125 9.89625 1.5625 8.8125 C1.12473034 5.84539451 0.62195134 2.93205634 0 0 Z " fill="#1CC7CF" transform="translate(614,473)"/>
<path d="M0 0 C0.66 0 1.32 0 2 0 C4.4294516 3.6441774 4.16179575 5.71241272 4 10 C1.04816899 7.04816899 0.91336012 4.04488053 0 0 Z " fill="#14C5CE" transform="translate(431,473)"/>
<path d="M0 0 C2.0625 0.4375 2.0625 0.4375 4 1 C3.34 1.66 2.68 2.32 2 3 C1.01 2.34 0.02 1.68 -1 1 C-0.67 0.67 -0.34 0.34 0 0 Z M-2 3 C0.0625 3.4375 0.0625 3.4375 2 4 C1.01 4.33 0.02 4.66 -1 5 C-1.99 6.485 -1.99 6.485 -3 8 C-3 4 -3 4 -2 3 Z " fill="#00C2CB" transform="translate(1052,472)"/>
<path d="M0 0 C1.98 0 3.96 0 6 0 C5.34 1.98 4.68 3.96 4 6 C1.7522025 3.94766315 0.9977758 2.99332739 0 0 Z " fill="#1DC7CF" transform="translate(543,476)"/>
<path d="M0 0 C2.12046792 3.53411321 2.53199289 6.94393835 3 11 C2.34 11 1.68 11 1 11 C-1.42857143 3.57142857 -1.42857143 3.57142857 0 0 Z " fill="#53D3D9" transform="translate(914,473)"/>
<path d="M0 0 C3 1 3 1 5 3 C3.02253397 3.73080266 1.01927511 4.39421747 -1 5 C-1.66 4.67 -2.32 4.34 -3 4 C-2.67 3.01 -2.34 2.02 -2 1 C-1.34 0.67 -0.68 0.34 0 0 Z " fill="#69D7DD" transform="translate(1049,472)"/>
<path d="M0 0 C0.99 0.33 1.98 0.66 3 1 C4.1875 4.5625 4.1875 4.5625 5 8 C2 7 2 7 0.8125 5.125 C0 3 0 3 0 0 Z " fill="#2DCBD2" transform="translate(821,473)"/>
<path d="M0 0 C1.98 0 3.96 0 6 0 C5.67 0.99 5.34 1.98 5 3 C5 2.34 5 1.68 5 1 C4.34 1 3.68 1 3 1 C2.67 1.99 2.34 2.98 2 4 C1.01 4.33 0.02 4.66 -1 5 C-0.67 3.35 -0.34 1.7 0 0 Z " fill="#4BD0D7" transform="translate(428,472)"/>
<path d="M0 0 C0.99 0.99 1.98 1.98 3 3 C2.67 3.99 2.34 4.98 2 6 C1.34 5.01 0.68 4.02 0 3 C-0.66 4.32 -1.32 5.64 -2 7 C-2 5.02 -2 3.04 -2 1 C-1.34 0.67 -0.68 0.34 0 0 Z " fill="#67D7DD" transform="translate(610,488)"/>
<path d="M0 0 C1.32 0.66 2.64 1.32 4 2 C3.34 2 2.68 2 2 2 C1.67 2.66 1.34 3.32 1 4 C0.01 4.66 -0.98 5.32 -2 6 C-2.66 5.67 -3.32 5.34 -4 5 C-4 4.34 -4 3.68 -4 3 C-2.68 2.67 -1.36 2.34 0 2 C0 1.34 0 0.68 0 0 Z " fill="#67D6DC" transform="translate(763,487)"/>
<path d="M0 0 C0.66 0 1.32 0 2 0 C2.625 3.375 2.625 3.375 3 7 C2.34 7.66 1.68 8.32 1 9 C0.67 6.03 0.34 3.06 0 0 Z " fill="#2FCBD3" transform="translate(913,485)"/>
<path d="M0 0 C1.32 0.99 2.64 1.98 4 3 C3.67 3.99 3.34 4.98 3 6 C1.68 5.67 0.36 5.34 -1 5 C-0.67 3.35 -0.34 1.7 0 0 Z " fill="#88DEE3" transform="translate(676,399)"/>
<path d="" fill="#DBF5F5" transform="translate(0,0)"/>
</svg>
